<svg xmlns="http://www.w3.org/2000/svg" width="109" height="237" viewBox="0 0 109 237" fill="none"><path d="M1.02099 175.849C1.02099 164.756 3.45238 156.877 8.31514 152.21C12.007 148.704 16.6777 146.953 22.3273 146.955C24.3841 146.966 26.4358 147.16 28.458 147.536L39.8355 149.578C46.1638 150.747 51.2708 152.766 55.1566 155.636C59.0423 158.506 61.8196 161.692 63.4883 165.196L106.104 151.913L106.104 181.395L66.8445 193.653L66.8446 202.704L106.095 208.684L106.095 236.705L1.021 218.173L1.02099 175.849ZM23.79 185.042L23.79 195.986L49.1825 199.781L49.1825 189.567C49.1825 184.412 47.9389 180.714 45.4515 178.475C42.9642 176.236 39.6826 175.117 35.6067 175.119C27.7177 175.119 23.7789 178.426 23.79 185.042Z" fill="#1A41B2"></path><path d="M2.62966e-06 84.9299C1.60493e-06 61.4868 9.5801 49.7634 28.7403 49.7597C32.2209 49.7868 35.6919 50.1285 39.111 50.7805L68.2904 55.8875C81.8196 58.2257 91.8435 63.2852 98.3619 71.066C104.88 78.8468 108.139 89.7927 108.137 103.904C108.137 118.013 104.879 127.839 98.362 133.382C93.887 137.179 87.7079 139.077 79.8245 139.077C75.9522 139.039 72.0915 138.648 68.2904 137.908L39.111 132.801C13.0277 128.229 -0.00931896 112.272 2.62966e-06 84.9299ZM85.5133 99.9601C85.5133 95.0973 84.25 91.206 81.7236 88.2861C79.1971 85.3662 74.5254 83.3236 67.7086 82.1582L39.6927 77.1938C37.9558 76.9208 36.2012 76.7759 34.443 76.7603C26.556 76.7603 22.6124 80.7486 22.6124 88.7252C22.8138 98.7509 28.5072 104.735 39.6927 106.678L67.7086 111.637C70.2192 112.034 72.7574 112.231 75.2992 112.224C82.1161 112.224 85.5207 108.136 85.5133 99.9601Z" fill="#1A41B2"></path><path d="M1.02099 7.02052e-05L106.095 18.3837L106.095 44.7998L1.021 26.2652L1.02099 7.02052e-05Z" fill="#1A41B2"></path></svg>