<svg xmlns="http://www.w3.org/2000/svg" viewBox="0 0 500 500" width="500" height="500" preserveAspectRatio="xMidYMid meet" style="width: 100%; height: 100%; transform: translate3d(0px, 0px, 0px);"><defs><clipPath id="__lottie_element_69"><rect width="500" height="500" x="0" y="0"></rect></clipPath></defs><g clip-path="url(#__lottie_element_69)"><g transform="matrix(1,0,0,1,0,0)" opacity="1" style="display: block;"><g opacity="1" transform="matrix(1,0,0,1,110.89299774169922,225.8090057373047)"><path stroke-linecap="round" stroke-linejoin="round" fill-opacity="0" stroke="rgb(2,255,179)" stroke-opacity="1" stroke-width="12" d=" M163.27099609375,144.7790069580078 C163.27099609375,142.5570068359375 163.27099609375,141.20700073242188 163.27099609375,141.20700073242188 M163.27099609375,184.30999755859375 C163.27099609375,184.30999755859375 163.27099609375,176.55599975585938 163.27099609375,167.625 M66.50700378417969,144.7790069580078 C66.50700378417969,142.5570068359375 66.50700378417969,141.20700073242188 66.50700378417969,141.20700073242188 M66.50700378417969,184.30999755859375 C66.50700378417969,184.30999755859375 66.50700378417969,176.55599975585938 66.50700378417969,167.625 M211.6540069580078,-96.39700317382812 C211.6540069580078,-94.17500305175781 211.6540069580078,-92.82499694824219 211.6540069580078,-92.82499694824219 M211.6540069580078,-135.92799377441406 C211.6540069580078,-135.92799377441406 211.6540069580078,-128.1739959716797 211.6540069580078,-119.24299621582031 M163.27099609375,-96.39700317382812 C163.27099609375,-94.17500305175781 163.27099609375,-92.82499694824219 163.27099609375,-92.82499694824219 M163.27099609375,-135.92799377441406 C163.27099609375,-135.92799377441406 163.27099609375,-128.1739959716797 163.27099609375,-119.24299621582031 M66.50700378417969,-96.39700317382812 C66.50700378417969,-94.17500305175781 66.50700378417969,-92.82499694824219 66.50700378417969,-92.82499694824219 M66.50700378417969,-135.92799377441406 C66.50700378417969,-135.92799377441406 66.50700378417969,-128.1739959716797 66.50700378417969,-119.24299621582031 M114.88899993896484,-96.39700317382812 C114.88899993896484,-94.17500305175781 114.88899993896484,-92.82499694824219 114.88899993896484,-92.82499694824219 M114.88899993896484,-135.92799377441406 C114.88899993896484,-135.92799377441406 114.88899993896484,-128.1739959716797 114.88899993896484,-119.24299621582031 M211.6540069580078,144.7790069580078 C211.6540069580078,142.5570068359375 211.6540069580078,141.20700073242188 211.6540069580078,141.20700073242188 M211.6540069580078,184.30999755859375 C211.6540069580078,184.30999755859375 211.6540069580078,176.55599975585938 211.6540069580078,167.625 M114.88899993896484,144.7790069580078 C114.88899993896484,142.5570068359375 114.88899993896484,141.20700073242188 114.88899993896484,141.20700073242188 M114.88899993896484,184.30999755859375 C114.88899993896484,184.30999755859375 114.88899993896484,176.55599975585938 114.88899993896484,167.625 M260.9129943847656,96.76399993896484 C258.6910095214844,96.76399993896484 257.34100341796875,96.76399993896484 257.34100341796875,96.76399993896484 M300.4440002441406,96.76399993896484 C300.4440002441406,96.76399993896484 292.69000244140625,96.76399993896484 283.7590026855469,96.76399993896484 M260.9129943847656,48.38199996948242 C258.6910095214844,48.38199996948242 257.34100341796875,48.38199996948242 257.34100341796875,48.38199996948242 M300.4440002441406,48.38199996948242 C300.4440002441406,48.38199996948242 292.69000244140625,48.38199996948242 283.7590026855469,48.38199996948242 M260.9129943847656,-48.38199996948242 C258.6910095214844,-48.38199996948242 257.34100341796875,-48.38199996948242 257.34100341796875,-48.38199996948242 M300.4440002441406,-48.38199996948242 C300.4440002441406,-48.38199996948242 292.69000244140625,-48.38199996948242 283.7590026855469,-48.38199996948242 M260.9129943847656,0 C258.6910095214844,0 257.34100341796875,0 257.34100341796875,0 M300.4440002441406,0 C300.4440002441406,0 292.69000244140625,0 283.7590026855469,0 M17.979999542236328,96.76399993896484 C20.20199966430664,96.76399993896484 21.552000045776367,96.76399993896484 21.552000045776367,96.76399993896484 M-21.552000045776367,96.76399993896484 C-21.552000045776367,96.76399993896484 -13.79699993133545,96.76399993896484 -4.867000102996826,96.76399993896484 M17.979999542236328,48.38199996948242 C20.20199966430664,48.38199996948242 21.552000045776367,48.38199996948242 21.552000045776367,48.38199996948242 M-21.552000045776367,48.38199996948242 C-21.552000045776367,48.38199996948242 -13.79699993133545,48.38199996948242 -4.867000102996826,48.38199996948242 M17.979999542236328,-48.38199996948242 C20.20199966430664,-48.38199996948242 21.552000045776367,-48.38199996948242 21.552000045776367,-48.38199996948242 M-21.552000045776367,-48.38199996948242 C-21.552000045776367,-48.38199996948242 -13.79699993133545,-48.38199996948242 -4.867000102996826,-48.38199996948242 M17.979999542236328,0 C20.20199966430664,0 21.552000045776367,0 21.552000045776367,0 M-21.552000045776367,0 C-21.552000045776367,0 -13.79699993133545,0 -4.867000102996826,0"></path></g></g><g transform="matrix(1,0,0,1,271.6400146484375,301.77099609375)" opacity="1" style="display: block;"><g opacity="1" transform="matrix(1,0,0,1,0,0)"><path stroke-linecap="round" stroke-linejoin="round" fill-opacity="0" stroke="rgb(2,255,179)" stroke-opacity="1" stroke-width="12" d=" M40.9640007019043,-23.576000213623047 C29.299999237060547,-23.576000213623047 11.586999893188477,-23.576000213623047 11.586999893188477,-23.576000213623047 C11.586999893188477,-23.576000213623047 -27.091999053955078,-49.16899871826172 -43.94499969482422,-60.31999969482422"></path></g></g><g transform="matrix(1,0,0,1,249.9739990234375,250)" opacity="1" style="display: block;"><g opacity="1" transform="matrix(1,0,0,1,0,0)"><path stroke-linecap="round" stroke-linejoin="round" fill-opacity="0" stroke="rgb(255,255,255)" stroke-opacity="1" stroke-width="12" d=" M93.76399993896484,117.01599884033203 C93.76399993896484,117.01599884033203 -93.76399993896484,117.01599884033203 -93.76399993896484,117.01599884033203 C-106.60600280761719,117.01599884033203 -117.01599884033203,106.60600280761719 -117.01599884033203,93.76399993896484 C-117.01599884033203,93.76399993896484 -117.01599884033203,-93.76399993896484 -117.01599884033203,-93.76399993896484 C-117.01599884033203,-106.60600280761719 -106.60600280761719,-117.01599884033203 -93.76399993896484,-117.01599884033203 C-93.76399993896484,-117.01599884033203 93.76399993896484,-117.01599884033203 93.76399993896484,-117.01599884033203 C106.60600280761719,-117.01599884033203 117.01599884033203,-106.60600280761719 117.01599884033203,-93.76399993896484 C117.01599884033203,-93.76399993896484 117.01599884033203,93.76399993896484 117.01599884033203,93.76399993896484 C117.01599884033203,106.60600280761719 106.60600280761719,117.01599884033203 93.76399993896484,117.01599884033203z"></path></g></g><g transform="matrix(1,0,0,1,192.33900451660156,295.7130126953125)" opacity="1" style="display: block;"><g opacity="1" transform="matrix(1,0,0,1,0,0)"><path stroke-linecap="round" stroke-linejoin="round" fill-opacity="0" stroke="rgb(255,255,255)" stroke-opacity="1" stroke-width="12" d=" M117.8290023803711,-69.5 C111.51000213623047,-69.5 107.27100372314453,-69.5 107.27100372314453,-69.5 C107.27100372314453,-69.5 107.24400329589844,-99.83599853515625 107.23300170898438,-112.16500091552734 M-19.113000869750977,-117.75 C-33.38600158691406,-117.75 -47.87900161743164,-117.75 -54.26900100708008,-117.75 M2.944000005722046,-16.424999237060547 C15.751999855041504,-7.951000213623047 43.19599914550781,10.208999633789062 54.430999755859375,17.64299964904785"></path></g></g><g transform="matrix(1.4678771495819092,0,0,1.4678771495819092,299.5780029296875,177.77099609375)" opacity="1" style="display: block;"><g opacity="1" transform="matrix(1,0,0,1,0,0)"><path stroke-linecap="round" stroke-linejoin="round" fill-opacity="0" stroke="rgb(255,255,255)" stroke-opacity="1" stroke-width="22" d=" M-0.21299999952316284,0 C-0.07100000232458115,0 0.07100000232458115,0 0.21299999952316284,0"></path></g></g><g transform="matrix(1.2036361694335938,0,0,1.2036361694335938,221.07699584960938,235.28199768066406)" opacity="1" style="display: block;"><g opacity="1" transform="matrix(1,0,0,1,0,0)"><path stroke-linecap="round" stroke-linejoin="round" fill-opacity="0" stroke="rgb(2,255,179)" stroke-opacity="1" stroke-width="22" d=" M-0.21299999952316284,0 C-0.07100000232458115,0 0.07100000232458115,0 0.21299999952316284,0"></path></g></g><g transform="matrix(1.039905071258545,0,0,1.039905071258545,251.05999755859375,316.6309814453125)" opacity="1" style="display: block;"><g opacity="1" transform="matrix(1,0,0,1,0,0)"><path stroke-linecap="round" stroke-linejoin="round" fill-opacity="0" stroke="rgb(255,255,255)" stroke-opacity="1" stroke-width="22" d=" M-0.21299999952316284,0 C-0.07100000232458115,0 0.07100000232458115,0 0.21299999952316284,0"></path></g></g><g transform="matrix(1.5521622896194458,0,0,1.5521622896194458,209.95700073242188,177.77099609375)" opacity="1" style="display: block;"><g opacity="1" transform="matrix(1,0,0,1,0,0)"><path stroke-linecap="round" stroke-linejoin="round" fill-opacity="0" stroke="rgb(255,255,255)" stroke-opacity="1" stroke-width="22" d=" M-0.21299999952316284,0 C-0.07100000232458115,0 0.07100000232458115,0 0.21299999952316284,0"></path></g></g><g style="display: none;"><path></path></g></g></svg>