<svg xmlns="http://www.w3.org/2000/svg" viewBox="0 0 500 500" width="500" height="500" preserveAspectRatio="xMidYMid meet" style="width: 100%; height: 100%; transform: translate3d(0px, 0px, 0px);"><defs><clipPath id="__lottie_element_160"><rect width="500" height="500" x="0" y="0"></rect></clipPath></defs><g clip-path="url(#__lottie_element_160)"><g transform="matrix(0.9995629191398621,-0.029562031850218773,0.029562031850218773,0.9995629191398621,-16.8265380859375,14.871307373046875)" opacity="1" style="display: block;"><g opacity="1" transform="matrix(1,0,0,1,229.55599975585938,283.9259948730469)"><path stroke-linecap="round" stroke-linejoin="round" fill-opacity="0" stroke="rgb(255,255,255)" stroke-opacity="1" stroke-width="12" d=" M6.802000045776367,20.69300079345703 C18.56399917602539,12.253999710083008 22.358999252319336,-2.5889999866485596 15.277000427246094,-12.458999633789062 C8.194999694824219,-22.32900047302246 -7.080999851226807,-23.48900032043457 -18.843000411987305,-15.050000190734863"></path></g><g opacity="1" transform="matrix(1,0,0,1,184.76600646972656,294.3320007324219)"><path stroke-linecap="round" stroke-linejoin="round" fill-opacity="0" stroke="rgb(255,255,255)" stroke-opacity="1" stroke-width="12" d=" M2.5139999389648438,58.8849983215332 C23.791000366210938,47.875 75.52999877929688,43.85499954223633 75.52999877929688,43.85499954223633 C75.52999877929688,43.85499954223633 1.8170000314712524,-58.8849983215332 1.8170000314712524,-58.8849983215332 C1.8170000314712524,-58.8849983215332 -19.799999237060547,-4.644000053405762 -37.909000396728516,8.348999977111816 C-37.909000396728516,8.348999977111816 -71.37899780273438,32.362998962402344 -71.37899780273438,32.362998962402344 C-76.9530029296875,36.36199951171875 -76.49099731445312,46.547000885009766 -72.49199676513672,52.12099838256836"></path></g><g opacity="1" transform="matrix(1,0,0,1,145.6009979248047,375.73699951171875)"><path stroke-linecap="round" stroke-linejoin="round" fill-opacity="0" stroke="rgb(255,255,255)" stroke-opacity="1" stroke-width="12" d=" M-14.265000343322754,-2.7149999141693115 C-10.265999794006348,2.8589999675750732 -0.765999972820282,6.558000087738037 4.808000087738037,2.559000015258789 C4.808000087738037,2.559000015258789 14.265000343322754,-4.238999843597412 14.265000343322754,-4.238999843597412"></path></g><g opacity="1" transform="matrix(1,0,0,1,192.72000122070312,381.26300048828125)"><path stroke-linecap="round" stroke-linejoin="round" fill-opacity="0" stroke="rgb(255,255,255)" stroke-opacity="1" stroke-width="12" d=" M-5.440000057220459,-28.045000076293945 C-5.440000057220459,-28.045000076293945 32.85300064086914,9.763999938964844 32.85300064086914,9.763999938964844 C32.85300064086914,9.763999938964844 5.440000057220459,28.045000076293945 5.440000057220459,28.045000076293945 C5.440000057220459,28.045000076293945 -32.85300064086914,-9.763999938964844 -32.85300064086914,-9.763999938964844"></path></g><g opacity="1" transform="matrix(1,0,0,1,112.42400360107422,366.4729919433594)"><path stroke-linecap="round" stroke-linejoin="round" fill-opacity="0" stroke="rgb(255,255,255)" stroke-opacity="1" stroke-width="12" d=" M-0.15000000596046448,-20.020000457763672 C-0.15000000596046448,-20.020000457763672 -18.913000106811523,-6.548999786376953 -18.913000106811523,-6.548999786376953 C-18.913000106811523,-6.548999786376953 0.15000000596046448,20.020000457763672 0.15000000596046448,20.020000457763672 C0.15000000596046448,20.020000457763672 18.913000106811523,6.548999786376953 18.913000106811523,6.548999786376953"></path></g></g><g transform="matrix(1,0,0,1,4.6585845947265625,-12.7052001953125)" opacity="1" style="display: block;"><g opacity="1" transform="matrix(1,0,0,1,0,0)"><g opacity="1" transform="matrix(1,0,0,1,209.86099243164062,116.91000366210938)"><path stroke-linecap="round" stroke-linejoin="round" fill-opacity="0" stroke="rgb(2,255,179)" stroke-opacity="1" stroke-width="12" d=" M16.827999114990234,0 C16.827999114990234,0 -16.827999114990234,0 -16.827999114990234,0"></path></g></g><g opacity="1" transform="matrix(1,0,0,1,209.86099243164062,143.5449981689453)"><path stroke-linecap="round" stroke-linejoin="round" fill-opacity="0" stroke="rgb(255,255,255)" stroke-opacity="1" stroke-width="12" d=" M16.827999114990234,0 C16.827999114990234,0 -16.827999114990234,0 -16.827999114990234,0 M0.49000000953674316,26.635000228881836 C0.49000000953674316,26.635000228881836 -16.827999114990234,26.635000228881836 -16.827999114990234,26.635000228881836 M38.6349983215332,53.37300109863281 C38.6349983215332,53.37300109863281 -38.6349983215332,53.37300109863281 -38.6349983215332,53.37300109863281 C-38.6349983215332,53.37300109863281 -38.6349983215332,-53.37300109863281 -38.6349983215332,-53.37300109863281 C-38.6349983215332,-53.37300109863281 38.6349983215332,-53.37300109863281 38.6349983215332,-53.37300109863281 C38.6349983215332,-53.37300109863281 38.6349983215332,53.37300109863281 38.6349983215332,53.37300109863281z"></path></g></g><g transform="matrix(1,0,0,1,12.28167724609375,-12.281707763671875)" opacity="1" style="display: block;"><g opacity="1" transform="matrix(1,0,0,1,367.9989929199219,337.2430114746094)"><path stroke-linecap="round" stroke-linejoin="round" fill-opacity="0" stroke="rgb(2,255,179)" stroke-opacity="1" stroke-width="12" d=" M-16.648000717163086,-19.222999572753906 C-16.648000717163086,-19.222999572753906 16.648000717163086,0 16.648000717163086,0 C16.648000717163086,0 -16.648000717163086,19.222999572753906 -16.648000717163086,19.222999572753906 C-16.648000717163086,19.222999572753906 -16.648000717163086,-19.222999572753906 -16.648000717163086,-19.222999572753906z"></path></g><g opacity="1" transform="matrix(1,0,0,1,363.85400390625,337.2430114746094)"><path stroke-linecap="round" stroke-linejoin="round" fill-opacity="0" stroke="rgb(255,255,255)" stroke-opacity="1" stroke-width="12" d=" M-46.05699920654297,0 C-46.05699920654297,25.437000274658203 -25.437000274658203,46.05699920654297 0,46.05699920654297 C25.437000274658203,46.05699920654297 46.05699920654297,25.437000274658203 46.05699920654297,0 C46.05699920654297,-25.437000274658203 25.437000274658203,-46.05699920654297 0,-46.05699920654297 C-25.437000274658203,-46.05699920654297 -46.05699920654297,-25.437000274658203 -46.05699920654297,0z"></path></g></g><g transform="matrix(1,0,0,1,12.987457275390625,-19.90484619140625)" opacity="1" style="display: block;"><g opacity="1" transform="matrix(1,0,0,1,0,0)"><g opacity="1" transform="matrix(1,0,0,1,328.8190002441406,216.12100219726562)"><path stroke-linecap="round" stroke-linejoin="round" fill-opacity="0" stroke="rgb(2,255,179)" stroke-opacity="1" stroke-width="12" d=" M11.026000022888184,-30.165000915527344 C11.026000022888184,-30.165000915527344 11.026000022888184,-30.165000915527344 11.026000022888184,-30.165000915527344 C4.936999797821045,-30.165000915527344 0,-25.229000091552734 0,-19.139999389648438 C0,-19.139999389648438 0,16.641000747680664 0,16.641000747680664 M-7.98799991607666,0 C-7.98799991607666,0 7.98799991607666,0 7.98799991607666,0"></path></g></g><g opacity="1" transform="matrix(1,0,0,1,330.8500061035156,209.35800170898438)"><path stroke-linecap="round" stroke-linejoin="round" fill-opacity="0" stroke="rgb(255,255,255)" stroke-opacity="1" stroke-width="12" d=" M31.642000198364258,43.641998291015625 C31.642000198364258,43.641998291015625 -31.642000198364258,43.641998291015625 -31.642000198364258,43.641998291015625 C-38.242000579833984,43.641998291015625 -43.641998291015625,38.242000579833984 -43.641998291015625,31.642000198364258 C-43.641998291015625,31.642000198364258 -43.641998291015625,-31.642000198364258 -43.641998291015625,-31.642000198364258 C-43.641998291015625,-38.242000579833984 -38.242000579833984,-43.641998291015625 -31.642000198364258,-43.641998291015625 C-31.642000198364258,-43.641998291015625 31.642000198364258,-43.641998291015625 31.642000198364258,-43.641998291015625 C38.242000579833984,-43.641998291015625 43.641998291015625,-38.242000579833984 43.641998291015625,-31.642000198364258 C43.641998291015625,-31.642000198364258 43.641998291015625,31.642000198364258 43.641998291015625,31.642000198364258 C43.641998291015625,38.242000579833984 38.242000579833984,43.641998291015625 31.642000198364258,43.641998291015625z"></path></g></g><g style="display: none;" transform="matrix(1,0,0,1,0,0)" opacity="1"><g opacity="1" transform="matrix(1,0,0,1,367.9989929199219,337.2430114746094)"><path stroke-linecap="round" stroke-linejoin="round" fill-opacity="0" stroke="rgb(2,255,179)" stroke-opacity="1" stroke-width="12" d=" M-16.648000717163086,-19.222999572753906 C-16.648000717163086,-19.222999572753906 16.648000717163086,0 16.648000717163086,0 C16.648000717163086,0 -16.648000717163086,19.222999572753906 -16.648000717163086,19.222999572753906 C-16.648000717163086,19.222999572753906 -16.648000717163086,-19.222999572753906 -16.648000717163086,-19.222999572753906z"></path></g><g opacity="1" transform="matrix(1,0,0,1,363.85400390625,337.2430114746094)"><path stroke-linecap="round" stroke-linejoin="round" fill-opacity="0" stroke="rgb(255,255,255)" stroke-opacity="1" stroke-width="12" d=" M-46.05699920654297,0 C-46.05699920654297,25.437000274658203 -25.437000274658203,46.05699920654297 0,46.05699920654297 C25.437000274658203,46.05699920654297 46.05699920654297,25.437000274658203 46.05699920654297,0 C46.05699920654297,-25.437000274658203 25.437000274658203,-46.05699920654297 0,-46.05699920654297 C-25.437000274658203,-46.05699920654297 -46.05699920654297,-25.437000274658203 -46.05699920654297,0z"></path></g></g><g style="display: none;" transform="matrix(1,0,0,1,0,0)" opacity="1"><g opacity="1" transform="matrix(1,0,0,1,0,0)"><g opacity="1" transform="matrix(1,0,0,1,328.8190002441406,216.12100219726562)"><path stroke-linecap="round" stroke-linejoin="round" fill-opacity="0" stroke="rgb(2,255,179)" stroke-opacity="1" stroke-width="12" d=" M11.026000022888184,-30.165000915527344 C11.026000022888184,-30.165000915527344 11.026000022888184,-30.165000915527344 11.026000022888184,-30.165000915527344 C4.936999797821045,-30.165000915527344 0,-25.229000091552734 0,-19.139999389648438 C0,-19.139999389648438 0,16.641000747680664 0,16.641000747680664 M-7.98799991607666,0 C-7.98799991607666,0 7.98799991607666,0 7.98799991607666,0"></path></g></g><g opacity="1" transform="matrix(1,0,0,1,330.8500061035156,209.35800170898438)"><path stroke-linecap="round" stroke-linejoin="round" fill-opacity="0" stroke="rgb(255,255,255)" stroke-opacity="1" stroke-width="12" d=" M31.642000198364258,43.641998291015625 C31.642000198364258,43.641998291015625 -31.642000198364258,43.641998291015625 -31.642000198364258,43.641998291015625 C-38.242000579833984,43.641998291015625 -43.641998291015625,38.242000579833984 -43.641998291015625,31.642000198364258 C-43.641998291015625,31.642000198364258 -43.641998291015625,-31.642000198364258 -43.641998291015625,-31.642000198364258 C-43.641998291015625,-38.242000579833984 -38.242000579833984,-43.641998291015625 -31.642000198364258,-43.641998291015625 C-31.642000198364258,-43.641998291015625 31.642000198364258,-43.641998291015625 31.642000198364258,-43.641998291015625 C38.242000579833984,-43.641998291015625 43.641998291015625,-38.242000579833984 43.641998291015625,-31.642000198364258 C43.641998291015625,-31.642000198364258 43.641998291015625,31.642000198364258 43.641998291015625,31.642000198364258 C43.641998291015625,38.242000579833984 38.242000579833984,43.641998291015625 31.642000198364258,43.641998291015625z"></path></g></g><g style="display: none;" transform="matrix(1,0,0,1,0,0)" opacity="1"><g opacity="1" transform="matrix(1,0,0,1,0,0)"><g opacity="1" transform="matrix(1,0,0,1,209.86099243164062,116.91000366210938)"><path stroke-linecap="round" stroke-linejoin="round" fill-opacity="0" stroke="rgb(2,255,179)" stroke-opacity="1" stroke-width="12" d=" M16.827999114990234,0 C16.827999114990234,0 -16.827999114990234,0 -16.827999114990234,0"></path></g></g><g opacity="1" transform="matrix(1,0,0,1,209.86099243164062,143.5449981689453)"><path stroke-linecap="round" stroke-linejoin="round" fill-opacity="0" stroke="rgb(255,255,255)" stroke-opacity="1" stroke-width="12" d=" M16.827999114990234,0 C16.827999114990234,0 -16.827999114990234,0 -16.827999114990234,0 M0.49000000953674316,26.635000228881836 C0.49000000953674316,26.635000228881836 -16.827999114990234,26.635000228881836 -16.827999114990234,26.635000228881836 M38.6349983215332,53.37300109863281 C38.6349983215332,53.37300109863281 -38.6349983215332,53.37300109863281 -38.6349983215332,53.37300109863281 C-38.6349983215332,53.37300109863281 -38.6349983215332,-53.37300109863281 -38.6349983215332,-53.37300109863281 C-38.6349983215332,-53.37300109863281 38.6349983215332,-53.37300109863281 38.6349983215332,-53.37300109863281 C38.6349983215332,-53.37300109863281 38.6349983215332,53.37300109863281 38.6349983215332,53.37300109863281z"></path></g></g><g style="display: none;"><path></path></g></g></svg>