<svg xmlns="http://www.w3.org/2000/svg" viewBox="0 0 500 500" width="500" height="500" preserveAspectRatio="xMidYMid meet" style="width: 100%; height: 100%; transform: translate3d(0px, 0px, 0px);"><defs><clipPath id="__lottie_element_46"><rect width="500" height="500" x="0" y="0"></rect></clipPath><filter id="__lottie_element_56" filterUnits="objectBoundingBox" x="0%" y="0%" width="100%" height="100%"><feComponentTransfer in="SourceGraphic"><feFuncA type="table" tableValues="1.0 0.0"></feFuncA></feComponentTransfer></filter><mask id="__lottie_element_55" mask-type="alpha"><g filter="url(#__lottie_element_56)"><rect width="500" height="500" x="0" y="0" fill="#ffffff" opacity="0"></rect><g transform="matrix(0.961917519569397,0.2733398973941803,-0.2733398973941803,0.961917519569397,99.88035583496094,-151.5369873046875)" opacity="1" style="display: block;"><g opacity="1" transform="matrix(1,0,0,1,310.8139953613281,269.2409973144531)"><path fill="rgb(255,255,255)" fill-opacity="1" d=" M58.9739990234375,-87.2750015258789 C58.9739990234375,-87.2750015258789 -82.552001953125,54.25199890136719 -82.552001953125,54.25199890136719 C-82.552001953125,54.25199890136719 -87.2699966430664,87.2750015258789 -87.2699966430664,87.2750015258789 C-87.2699966430664,87.2750015258789 -54.24700164794922,82.55699920654297 -54.24700164794922,82.55699920654297 C-54.24700164794922,82.55699920654297 87.2699966430664,-58.979000091552734 87.2699966430664,-58.979000091552734 C87.2699966430664,-58.979000091552734 58.9739990234375,-87.2750015258789 58.9739990234375,-87.2750015258789z"></path></g></g></g></mask><filter id="__lottie_element_63" filterUnits="objectBoundingBox" x="0%" y="0%" width="100%" height="100%"><feComponentTransfer in="SourceGraphic"><feFuncA type="table" tableValues="1.0 0.0"></feFuncA></feComponentTransfer></filter><mask id="__lottie_element_62" mask-type="alpha"><g filter="url(#__lottie_element_63)"><rect width="500" height="500" x="0" y="0" fill="#ffffff" opacity="0"></rect><g transform="matrix(0.961917519569397,0.2733398973941803,-0.2733398973941803,0.961917519569397,99.88035583496094,-151.5369873046875)" opacity="1" style="display: block;"><g opacity="1" transform="matrix(1,0,0,1,310.8139953613281,269.2409973144531)"><path fill="rgb(255,255,255)" fill-opacity="1" d=" M58.9739990234375,-87.2750015258789 C58.9739990234375,-87.2750015258789 -82.552001953125,54.25199890136719 -82.552001953125,54.25199890136719 C-82.552001953125,54.25199890136719 -87.2699966430664,87.2750015258789 -87.2699966430664,87.2750015258789 C-87.2699966430664,87.2750015258789 -54.24700164794922,82.55699920654297 -54.24700164794922,82.55699920654297 C-54.24700164794922,82.55699920654297 87.2699966430664,-58.979000091552734 87.2699966430664,-58.979000091552734 C87.2699966430664,-58.979000091552734 58.9739990234375,-87.2750015258789 58.9739990234375,-87.2750015258789z"></path></g></g></g></mask></defs><g clip-path="url(#__lottie_element_46)"><g mask="url(#__lottie_element_62)" style="display: block;"><g transform="matrix(1,0,0,1,0,0)" opacity="1"><g opacity="1" transform="matrix(1,0,0,1,229.98599243164062,250)"><path stroke-linecap="round" stroke-linejoin="round" fill-opacity="0" stroke="rgb(255,255,255)" stroke-opacity="1" stroke-width="12" d=" M113.41600036621094,-66.71199798583984 C113.41600036621094,-66.71199798583984 113.41600036621094,160.11900329589844 113.41600036621094,160.11900329589844 C113.41600036621094,160.11900329589844 -113.41600036621094,160.11900329589844 -113.41600036621094,160.11900329589844 C-113.41600036621094,160.11900329589844 -113.41600036621094,-160.11900329589844 -113.41600036621094,-160.11900329589844 C-113.41600036621094,-160.11900329589844 20.013999938964844,-160.11500549316406 20.013999938964844,-160.11500549316406"></path></g><g opacity="1" transform="matrix(1,0,0,1,296.70098876953125,136.58599853515625)"><path stroke-linecap="round" stroke-linejoin="round" fill-opacity="0" stroke="rgb(255,255,255)" stroke-opacity="1" stroke-width="12" d=" M-46.70100021362305,46.70100021362305 C-46.70100021362305,46.70100021362305 46.70100021362305,46.70100021362305 46.70100021362305,46.70100021362305 C46.70100021362305,46.70100021362305 -46.70100021362305,-46.70100021362305 -46.70100021362305,-46.70100021362305 C-46.70100021362305,-46.70100021362305 -46.70100021362305,46.70100021362305 -46.70100021362305,46.70100021362305z"></path></g></g></g><g mask="url(#__lottie_element_55)" style="display: block;"><g transform="matrix(1,0,0,1,239,257)" opacity="1"><g opacity="1" transform="matrix(1,0,0,1,0,0)"><path stroke-linecap="round" stroke-linejoin="round" fill-opacity="0" stroke="rgb(255,255,255)" stroke-opacity="1" stroke-width="12" d=" M6.599999904632568,17.81399917602539 C-14.444000244140625,-11.508999824523926 -23.086000442504883,-20.274999618530273 -25.142000198364258,-17.1200008392334 C-26.01799964904785,-15.776000022888184 -25.292999267578125,-12.093000411987305 -23.632999420166016,-6.818999767303467"></path></g></g></g><g transform="matrix(0.961917519569397,0.2733398973941803,-0.2733398973941803,0.961917519569397,99.88035583496094,-151.5369873046875)" opacity="1" style="display: block;"><g opacity="1" transform="matrix(1,0,0,1,310.8139953613281,269.2409973144531)"><path stroke-linecap="round" stroke-linejoin="round" fill-opacity="0" stroke="rgb(2,255,179)" stroke-opacity="1" stroke-width="12" d=" M58.9739990234375,-87.2750015258789 C58.9739990234375,-87.2750015258789 -82.552001953125,54.25199890136719 -82.552001953125,54.25199890136719 C-82.552001953125,54.25199890136719 -87.2699966430664,87.2750015258789 -87.2699966430664,87.2750015258789 C-87.2699966430664,87.2750015258789 -54.24700164794922,82.55699920654297 -54.24700164794922,82.55699920654297 C-54.24700164794922,82.55699920654297 87.2699966430664,-58.979000091552734 87.2699966430664,-58.979000091552734 C87.2699966430664,-58.979000091552734 58.9739990234375,-87.2750015258789 58.9739990234375,-87.2750015258789z"></path></g><g opacity="1" transform="matrix(1,0,0,1,392.1969909667969,187.86199951171875)"><path fill="rgb(2,255,179)" fill-opacity="1" d=" M1.1790000200271606,17.691999435424805 C1.1790000200271606,17.691999435424805 -17.691999435424805,-1.1790000200271606 -17.691999435424805,-1.1790000200271606 C-17.691999435424805,-1.1790000200271606 -2.8450000286102295,-16.024999618530273 -2.8450000286102295,-16.024999618530273 C-0.6230000257492065,-18.246999740600586 2.9800000190734863,-18.246999740600586 5.202000141143799,-16.024999618530273 C5.202000141143799,-16.024999618530273 16.024999618530273,-5.202000141143799 16.024999618530273,-5.202000141143799 C18.246999740600586,-2.9800000190734863 18.246999740600586,0.6230000257492065 16.024999618530273,2.8450000286102295 C16.024999618530273,2.8450000286102295 1.1790000200271606,17.691999435424805 1.1790000200271606,17.691999435424805z"></path></g></g><g style="display: none;"><path></path></g></g></svg>