<svg xmlns="http://www.w3.org/2000/svg" viewBox="0 0 500 500" width="500" height="500" preserveAspectRatio="xMidYMid meet" style="width: 100%; height: 100%; transform: translate3d(0px, 0px, 0px);"><defs><clipPath id="__lottie_element_99"><rect width="500" height="500" x="0" y="0"></rect></clipPath></defs><g clip-path="url(#__lottie_element_99)"><g transform="matrix(1,0,0,1,0,0)" opacity="1" style="display: block;"><g opacity="1" transform="matrix(1,0,0,1,250,250)"><path stroke-linecap="round" stroke-linejoin="round" fill-opacity="0" stroke="rgb(255,255,255)" stroke-opacity="1" stroke-width="12.04" d=" M137.71200561523438,160.11900329589844 C137.71200561523438,160.11900329589844 -137.71200561523438,160.11900329589844 -137.71200561523438,160.11900329589844 C-150.08700561523438,160.11900329589844 -160.11900329589844,150.08700561523438 -160.11900329589844,137.71200561523438 C-160.11900329589844,137.71200561523438 -160.11900329589844,-137.71200561523438 -160.11900329589844,-137.71200561523438 C-160.11900329589844,-150.08700561523438 -150.08700561523438,-160.11900329589844 -137.71200561523438,-160.11900329589844 C-137.71200561523438,-160.11900329589844 137.71200561523438,-160.11900329589844 137.71200561523438,-160.11900329589844 C150.08700561523438,-160.11900329589844 160.11900329589844,-150.08700561523438 160.11900329589844,-137.71200561523438 C160.11900329589844,-137.71200561523438 160.11900329589844,137.71200561523438 160.11900329589844,137.71200561523438 C160.11900329589844,150.08700561523438 150.08700561523438,160.11900329589844 137.71200561523438,160.11900329589844z"></path></g><g opacity="1" transform="matrix(1,0,0,1,249,141.25399780273438)"><path stroke-linecap="round" stroke-linejoin="round" fill-opacity="0" stroke="rgb(255,255,255)" stroke-opacity="1" stroke-width="12.04" d=" M159.11900329589844,0 C159.11900329589844,0 -159.11900329589844,0 -159.11900329589844,0"></path></g><g opacity="1" transform="matrix(1,0,0,1,0,0)"><g opacity="1" transform="matrix(1,0,0,1,177.9320068359375,115.56700134277344)"><path stroke-linecap="round" stroke-linejoin="round" fill-opacity="0" stroke="rgb(2,255,179)" stroke-opacity="1" stroke-width="15.049999999999999" d=" M-0.06800000369548798,0 C-0.06800000369548798,0 0.06800000369548798,0 0.06800000369548798,0"></path></g><g opacity="1" transform="matrix(1,0,0,1,121.63600158691406,115.56700134277344)"><path stroke-linecap="round" stroke-linejoin="round" fill-opacity="0" stroke="rgb(2,255,179)" stroke-opacity="1" stroke-width="15.049999999999999" d=" M-0.06800000369548798,0 C-0.06800000369548798,0 0.06800000369548798,0 0.06800000369548798,0"></path></g><g opacity="1" transform="matrix(1,0,0,1,149.78399658203125,115.56700134277344)"><path stroke-linecap="round" stroke-linejoin="round" fill-opacity="0" stroke="rgb(2,255,179)" stroke-opacity="1" stroke-width="15.049999999999999" d=" M-0.06800000369548798,0 C-0.06800000369548798,0 0.06800000369548798,0 0.06800000369548798,0"></path></g></g></g><g transform="matrix(1,0,0,1,0,0)" opacity="1" style="display: block;"><g opacity="1" transform="matrix(1,0,0,1,0,0)"><g opacity="1" transform="matrix(1,0,0,1,248.52099609375,236.10299682617188)"><path stroke-linecap="round" stroke-linejoin="round" fill-opacity="0" stroke="rgb(2,255,179)" stroke-opacity="1" stroke-width="12.04" d="M0 0"></path></g><g opacity="1" transform="matrix(1,0,0,1,318.8009948730469,195.26300048828125)"><path stroke-linecap="round" stroke-linejoin="round" fill-opacity="0" stroke="rgb(2,255,179)" stroke-opacity="1" stroke-width="12.04" d=" M-150.86099243164062,90.20700073242188 C-150.86099243164062,90.20700073242188 10.300000190734863,-8.527000427246094 10.300000190734863,-8.527000427246094 M-10.305000305175781,-12.079999923706055 C-10.305000305175781,-12.079999923706055 10.305000305175781,-8.529999732971191 10.305000305175781,-8.529999732971191 C10.305000305175781,-8.529999732971191 6.755000114440918,12.079999923706055 6.755000114440918,12.079999923706055"></path></g><g opacity="1" transform="matrix(0,0,0,0,167.80099487304688,284.26300048828125)"><path stroke-linecap="round" stroke-linejoin="round" fill-opacity="0" stroke="rgb(2,255,179)" stroke-opacity="1" stroke-width="12.04" d=" M-150.86099243164062,90.20700073242188 C-150.86099243164062,90.20700073242188 -150.1999969482422,89.7229995727539 -150.1999969482422,89.7229995727539 M-150.79800415039062,90.48699951171875 C-150.79800415039062,90.48699951171875 -151.20199584960938,90.41699981689453 -151.20199584960938,90.41699981689453 C-151.20199584960938,90.41699981689453 -151.1320037841797,90.01300048828125 -151.1320037841797,90.01300048828125"></path></g></g><g opacity="1" transform="matrix(1,0,0,1,315,309.4830017089844)"><path stroke-linecap="round" stroke-linejoin="round" fill-opacity="0" stroke="rgb(2,255,179)" stroke-opacity="1" stroke-width="12.04" d=" M-118.31300354003906,59.60599899291992 C-118.31300354003906,59.60599899291992 -147.05999755859375,59.60599899291992 -147.05999755859375,59.60599899291992 C-147.05999755859375,59.60599899291992 -147.05999755859375,20.413000106811523 -147.05999755859375,20.413000106811523 C-147.05999755859375,20.413000106811523 -118.31300354003906,20.413000106811523 -118.31300354003906,20.413000106811523 C-118.31300354003906,20.413000106811523 -118.31300354003906,59.60599899291992 -118.31300354003906,59.60599899291992z M-51.970001220703125,59.60599899291992 C-51.970001220703125,59.60599899291992 -80.71700286865234,59.60599899291992 -80.71700286865234,59.60599899291992 C-80.71700286865234,59.60599899291992 -80.71700286865234,-18.7810001373291 -80.71700286865234,-18.7810001373291 C-80.71700286865234,-18.7810001373291 -51.970001220703125,-18.7810001373291 -51.970001220703125,-18.7810001373291 C-51.970001220703125,-18.7810001373291 -51.970001220703125,59.60599899291992 -51.970001220703125,59.60599899291992z M14.373000144958496,59.60599899291992 C14.373000144958496,59.60599899291992 -14.373000144958496,59.60599899291992 -14.373000144958496,59.60599899291992 C-14.373000144958496,59.60599899291992 -14.373000144958496,-59.60599899291992 -14.373000144958496,-59.60599899291992 C-14.373000144958496,-59.60599899291992 14.373000144958496,-59.60599899291992 14.373000144958496,-59.60599899291992 C14.373000144958496,-59.60599899291992 14.373000144958496,59.60599899291992 14.373000144958496,59.60599899291992z"></path></g></g><g class="com" style="display: none;"><g><path></path></g><g><path></path></g><g><path></path></g><g><path></path></g><g><path></path></g><g><path></path></g><g><path></path></g><g><path></path></g><g><path></path></g><g><path></path></g><g><path></path></g><g><path></path></g></g></g></svg>