<svg xmlns="http://www.w3.org/2000/svg" viewBox="0 0 500 500" width="500" height="500" preserveAspectRatio="xMidYMid meet" style="width: 100%; height: 100%; transform: translate3d(0px, 0px, 0px);"><defs><clipPath id="__lottie_element_7"><rect width="500" height="500" x="0" y="0"></rect></clipPath><filter id="__lottie_element_27" filterUnits="objectBoundingBox" x="0%" y="0%" width="100%" height="100%"><feComponentTransfer in="SourceGraphic"><feFuncA type="table" tableValues="1.0 0.0"></feFuncA></feComponentTransfer></filter><mask id="__lottie_element_26" mask-type="alpha"><g filter="url(#__lottie_element_27)"><rect width="500" height="500" x="0" y="0" fill="#ffffff" opacity="0"></rect><g clip-path="url(#__lottie_element_28)" transform="matrix(1,0,0,1,0,0)" opacity="1" style="display: block;"><g transform="matrix(1,0,0,1,290.656005859375,124.81099700927734)" opacity="1" style="display: block;"><g opacity="1" transform="matrix(1,0,0,1,0,0)"><g opacity="1" transform="matrix(1,0,0,1,302.4639892578125,124.60800170898438)"><path stroke-linecap="round" stroke-linejoin="round" fill-opacity="0" stroke="rgb(255,255,255)" stroke-opacity="1" stroke-width="0" d=" M-287.0804138183594,-124.86262512207031 C-287.0804138183594,-124.86262512207031 -307.1756896972656,-124.86262512207031 -307.1756896972656,-124.86262512207031"></path><path fill="rgb(255,0,0)" fill-opacity="1" d=" M-287.0804138183594,-124.86262512207031 C-287.0804138183594,-124.86262512207031 -307.1756896972656,-124.86262512207031 -307.1756896972656,-124.86262512207031"></path></g><g opacity="1" transform="matrix(1,0,0,1,0,0)"><g opacity="1" transform="matrix(1,0,0,1,254.69000244140625,124.60800170898438)"><path stroke-linecap="round" stroke-linejoin="round" fill-opacity="0" stroke="rgb(255,255,255)" stroke-opacity="1" stroke-width="0" d=" M-270.338134765625,-124.86262512207031 C-270.338134765625,-124.86262512207031 -270.3041687011719,-124.86262512207031 -270.3041687011719,-124.86262512207031"></path><path fill="rgb(255,0,0)" fill-opacity="1" d=" M-270.338134765625,-124.86262512207031 C-270.338134765625,-124.86262512207031 -270.3041687011719,-124.86262512207031 -270.3041687011719,-124.86262512207031"></path></g></g></g><g opacity="1" transform="matrix(1,0,0,1,0,0)"><path stroke-linecap="round" stroke-linejoin="round" fill-opacity="0" stroke="rgb(255,255,255)" stroke-opacity="1" stroke-width="0" d=" M22.046504974365234,26.030498504638672 C22.046504974365234,26.030498504638672 -22.444807052612305,26.081457138061523 -22.444807052612305,26.081457138061523 C-31.393461227416992,26.081457138061523 -38.715396881103516,18.759523391723633 -38.715396881103516,9.810869216918945 C-38.715396881103516,9.810869216918945 -38.715396881103516,-9.916744232177734 -38.715396881103516,-9.916744232177734 C-38.715396881103516,-18.75025177001953 -31.48772430419922,-25.977359771728516 -22.654216766357422,-25.977359771728516 C-22.654216766357422,-25.977359771728516 22.359771728515625,-26.0283203125 22.359771728515625,-26.0283203125 C31.115951538085938,-26.0283203125 38.279842376708984,-18.864994049072266 38.279842376708984,-10.108816146850586 C38.279842376708984,-10.108816146850586 38.279842376708984,9.797162055969238 38.279842376708984,9.797162055969238 C38.279842376708984,18.725496292114258 30.97484016418457,26.030498504638672 22.046504974365234,26.030498504638672z"></path><path fill="rgb(255,0,0)" fill-opacity="1" d=" M22.046504974365234,26.030498504638672 C22.046504974365234,26.030498504638672 -22.444807052612305,26.081457138061523 -22.444807052612305,26.081457138061523 C-31.393461227416992,26.081457138061523 -38.715396881103516,18.759523391723633 -38.715396881103516,9.810869216918945 C-38.715396881103516,9.810869216918945 -38.715396881103516,-9.916744232177734 -38.715396881103516,-9.916744232177734 C-38.715396881103516,-18.75025177001953 -31.48772430419922,-25.977359771728516 -22.654216766357422,-25.977359771728516 C-22.654216766357422,-25.977359771728516 22.359771728515625,-26.0283203125 22.359771728515625,-26.0283203125 C31.115951538085938,-26.0283203125 38.279842376708984,-18.864994049072266 38.279842376708984,-10.108816146850586 C38.279842376708984,-10.108816146850586 38.279842376708984,9.797162055969238 38.279842376708984,9.797162055969238 C38.279842376708984,18.725496292114258 30.97484016418457,26.030498504638672 22.046504974365234,26.030498504638672z"></path></g></g><g transform="matrix(1,0,0,1,152.656005859375,233.31100463867188)" opacity="1" style="display: block;"><g opacity="1" transform="matrix(1,0,0,1,0,0)"><g opacity="1" transform="matrix(1,0,0,1,302.4639892578125,124.60800170898438)"><path stroke-linecap="round" stroke-linejoin="round" fill-opacity="0" stroke="rgb(255,255,255)" stroke-opacity="1" stroke-width="0" d=" M-268.3543395996094,-124.84452819824219 C-268.3543395996094,-124.84452819824219 -313.41204833984375,-124.84452819824219 -313.41204833984375,-124.84452819824219"></path><path fill="rgb(255,0,0)" fill-opacity="1" d=" M-268.3543395996094,-124.84452819824219 C-268.3543395996094,-124.84452819824219 -313.41204833984375,-124.84452819824219 -313.41204833984375,-124.84452819824219"></path></g><g opacity="1" transform="matrix(1.000003695487976,0,0,1.000003695487976,0.0001068115234375,0)"><g opacity="1" transform="matrix(1,0,0,1,254.69000244140625,124.60800170898438)"><path stroke-linecap="round" stroke-linejoin="round" fill-opacity="0" stroke="rgb(255,255,255)" stroke-opacity="1" stroke-width="0" d=" M-290.16162109375,-124.84452819824219 C-290.16162109375,-124.84452819824219 -290.0848693847656,-124.84452819824219 -290.0848693847656,-124.84452819824219"></path><path fill="rgb(255,0,0)" fill-opacity="1" d=" M-290.16162109375,-124.84452819824219 C-290.16162109375,-124.84452819824219 -290.0848693847656,-124.84452819824219 -290.0848693847656,-124.84452819824219"></path></g></g></g><g opacity="1" transform="matrix(1,0,0,1,0,0)"><path stroke-linecap="round" stroke-linejoin="round" fill-opacity="0" stroke="rgb(255,255,255)" stroke-opacity="1" stroke-width="0" d=" M50.087860107421875,34.56208038330078 C50.087860107421875,34.56208038330078 -51.07080078125,34.677207946777344 -51.07080078125,34.677207946777344 C-57.73738479614258,34.677207946777344 -63.19186782836914,29.22272300720215 -63.19186782836914,22.556140899658203 C-63.19186782836914,22.556140899658203 -63.19186782836914,-22.32691764831543 -63.19186782836914,-22.32691764831543 C-63.19186782836914,-28.990236282348633 -57.740055084228516,-34.44203186035156 -51.07674026489258,-34.44203186035156 C-51.07674026489258,-34.44203186035156 50.09674072265625,-34.557159423828125 50.09674072265625,-34.557159423828125 C56.75786590576172,-34.557159423828125 62.20787048339844,-29.1071720123291 62.20787048339844,-22.446046829223633 C62.20787048339844,-22.446046829223633 62.20787048339844,22.44207000732422 62.20787048339844,22.44207000732422 C62.20787048339844,29.108076095581055 56.75386428833008,34.56208038330078 50.087860107421875,34.56208038330078z"></path><path fill="rgb(255,0,0)" fill-opacity="1" d=" M50.087860107421875,34.56208038330078 C50.087860107421875,34.56208038330078 -51.07080078125,34.677207946777344 -51.07080078125,34.677207946777344 C-57.73738479614258,34.677207946777344 -63.19186782836914,29.22272300720215 -63.19186782836914,22.556140899658203 C-63.19186782836914,22.556140899658203 -63.19186782836914,-22.32691764831543 -63.19186782836914,-22.32691764831543 C-63.19186782836914,-28.990236282348633 -57.740055084228516,-34.44203186035156 -51.07674026489258,-34.44203186035156 C-51.07674026489258,-34.44203186035156 50.09674072265625,-34.557159423828125 50.09674072265625,-34.557159423828125 C56.75786590576172,-34.557159423828125 62.20787048339844,-29.1071720123291 62.20787048339844,-22.446046829223633 C62.20787048339844,-22.446046829223633 62.20787048339844,22.44207000732422 62.20787048339844,22.44207000732422 C62.20787048339844,29.108076095581055 56.75386428833008,34.56208038330078 50.087860107421875,34.56208038330078z"></path></g></g><g transform="matrix(1,0,0,1,151.656005859375,358.8110046386719)" opacity="1" style="display: block;"><g opacity="1" transform="matrix(1,0,0,1,0,0)"><g opacity="1" transform="matrix(1,0,0,1,302.4639892578125,124.60800170898438)"><path stroke-linecap="round" stroke-linejoin="round" fill-opacity="0" stroke="rgb(255,255,255)" stroke-opacity="1" stroke-width="0" d=" M-267.8080139160156,-124.84400177001953 C-267.8080139160156,-124.84400177001953 -313.593994140625,-124.84400177001953 -313.593994140625,-124.84400177001953"></path><path fill="rgb(255,0,0)" fill-opacity="1" d=" M-267.8080139160156,-124.84400177001953 C-267.8080139160156,-124.84400177001953 -313.593994140625,-124.84400177001953 -313.593994140625,-124.84400177001953"></path></g><g opacity="1" transform="matrix(1.0000020265579224,0,0,1.0000020265579224,0.0000591278076171875,0)"><g opacity="1" transform="matrix(1,0,0,1,254.69000244140625,124.60800170898438)"><path stroke-linecap="round" stroke-linejoin="round" fill-opacity="0" stroke="rgb(255,255,255)" stroke-opacity="1" stroke-width="0" d=" M-290.739990234375,-124.84400177001953 C-290.739990234375,-124.84400177001953 -290.6619873046875,-124.84400177001953 -290.6619873046875,-124.84400177001953"></path><path fill="rgb(255,0,0)" fill-opacity="1" d=" M-290.739990234375,-124.84400177001953 C-290.739990234375,-124.84400177001953 -290.6619873046875,-124.84400177001953 -290.6619873046875,-124.84400177001953"></path></g></g></g><g opacity="1" transform="matrix(1,0,0,1,0,0)"><path stroke-linecap="round" stroke-linejoin="round" fill-opacity="0" stroke="rgb(255,255,255)" stroke-opacity="1" stroke-width="0" d=" M50.90599822998047,34.81100082397461 C50.90599822998047,34.81100082397461 -51.90599822998047,34.928001403808594 -51.90599822998047,34.928001403808594 C-58.50600051879883,34.928001403808594 -63.90599822998047,29.527999877929688 -63.90599822998047,22.92799949645996 C-63.90599822998047,22.92799949645996 -63.90599822998047,-22.68899917602539 -63.90599822998047,-22.68899917602539 C-63.90599822998047,-29.288999557495117 -58.50600051879883,-34.68899917602539 -51.90599822998047,-34.68899917602539 C-51.90599822998047,-34.68899917602539 50.90599822998047,-34.805999755859375 50.90599822998047,-34.805999755859375 C57.50600051879883,-34.805999755859375 62.90599822998047,-29.4060001373291 62.90599822998047,-22.805999755859375 C62.90599822998047,-22.805999755859375 62.90599822998047,22.81100082397461 62.90599822998047,22.81100082397461 C62.90599822998047,29.410999298095703 57.50600051879883,34.81100082397461 50.90599822998047,34.81100082397461z"></path><path fill="rgb(255,0,0)" fill-opacity="1" d=" M50.90599822998047,34.81100082397461 C50.90599822998047,34.81100082397461 -51.90599822998047,34.928001403808594 -51.90599822998047,34.928001403808594 C-58.50600051879883,34.928001403808594 -63.90599822998047,29.527999877929688 -63.90599822998047,22.92799949645996 C-63.90599822998047,22.92799949645996 -63.90599822998047,-22.68899917602539 -63.90599822998047,-22.68899917602539 C-63.90599822998047,-29.288999557495117 -58.50600051879883,-34.68899917602539 -51.90599822998047,-34.68899917602539 C-51.90599822998047,-34.68899917602539 50.90599822998047,-34.805999755859375 50.90599822998047,-34.805999755859375 C57.50600051879883,-34.805999755859375 62.90599822998047,-29.4060001373291 62.90599822998047,-22.805999755859375 C62.90599822998047,-22.805999755859375 62.90599822998047,22.81100082397461 62.90599822998047,22.81100082397461 C62.90599822998047,29.410999298095703 57.50600051879883,34.81100082397461 50.90599822998047,34.81100082397461z"></path></g></g><g transform="matrix(1,0,0,1,354.1929931640625,358.42999267578125)" opacity="1" style="display: block;"><g opacity="1" transform="matrix(1,0,0,1,0,0)"><path stroke-linecap="round" stroke-linejoin="round" fill-opacity="0" stroke="rgb(2,255,179)" stroke-opacity="1" stroke-width="0" d=" M-52.055999755859375,0 C-52.055999755859375,-28.75 -28.75,-52.055999755859375 0,-52.055999755859375 C28.75,-52.055999755859375 52.055999755859375,-28.75 52.055999755859375,0 C52.055999755859375,28.75 28.75,52.055999755859375 0,52.055999755859375 C-28.75,52.055999755859375 -52.055999755859375,28.75 -52.055999755859375,0z"></path><path fill="rgb(255,0,0)" fill-opacity="1" d=" M-52.055999755859375,0 C-52.055999755859375,-28.75 -28.75,-52.055999755859375 0,-52.055999755859375 C28.75,-52.055999755859375 52.055999755859375,-28.75 52.055999755859375,0 C52.055999755859375,28.75 28.75,52.055999755859375 0,52.055999755859375 C-28.75,52.055999755859375 -52.055999755859375,28.75 -52.055999755859375,0z"></path></g></g></g></g></mask><clipPath id="__lottie_element_28"><path d="M0,0 L500,0 L500,500 L0,500z"></path></clipPath></defs><g clip-path="url(#__lottie_element_7)"><g mask="url(#__lottie_element_26)" style="display: block;"><g transform="matrix(1,0,0,1,254.85000610351562,241.51800537109375)" opacity="1"><g opacity="1" transform="matrix(1,0,0,1,0,0)"><path stroke-linecap="round" stroke-linejoin="round" fill-opacity="0" stroke="rgb(2,255,179)" stroke-opacity="1" stroke-width="12.04" d=" M101.9000015258789,116.91500091552734 C101.9000015258789,116.91500091552734 -101.9000015258789,116.91500091552734 -101.9000015258789,116.91500091552734 C-101.9000015258789,116.91500091552734 -101.9000015258789,-7.565000057220459 -101.9000015258789,-7.565000057220459 C-101.9000015258789,-7.565000057220459 4.940000057220459,-7.565000057220459 4.940000057220459,-7.565000057220459 C22.34000015258789,-7.565000057220459 36.45000076293945,-21.674999237060547 36.45000076293945,-39.064998626708984 C36.45000076293945,-39.064998626708984 36.45000076293945,-116.91500091552734 36.45000076293945,-116.91500091552734"></path></g></g></g><g transform="matrix(1,0,0,1,290.656005859375,124.81099700927734)" opacity="1" style="display: block;"><g opacity="1" transform="matrix(1,0,0,1,0,0)"><g opacity="1" transform="matrix(1,0,0,1,302.4639892578125,124.60800170898438)"><path stroke-linecap="round" stroke-linejoin="round" fill-opacity="0" stroke="rgb(255,255,255)" stroke-opacity="1" stroke-width="12.04" d=" M-287.0804138183594,-124.86262512207031 C-287.0804138183594,-124.86262512207031 -307.1756896972656,-124.86262512207031 -307.1756896972656,-124.86262512207031"></path></g><g opacity="1" transform="matrix(1,0,0,1,0,0)"><g opacity="1" transform="matrix(1,0,0,1,254.69000244140625,124.60800170898438)"><path stroke-linecap="round" stroke-linejoin="round" fill-opacity="0" stroke="rgb(255,255,255)" stroke-opacity="1" stroke-width="12.04" d=" M-270.338134765625,-124.86262512207031 C-270.338134765625,-124.86262512207031 -270.3041687011719,-124.86262512207031 -270.3041687011719,-124.86262512207031"></path></g></g></g><g opacity="1" transform="matrix(1,0,0,1,0,0)"><path stroke-linecap="round" stroke-linejoin="round" fill-opacity="0" stroke="rgb(255,255,255)" stroke-opacity="1" stroke-width="12.04" d=" M22.046504974365234,26.030498504638672 C22.046504974365234,26.030498504638672 -22.444807052612305,26.081457138061523 -22.444807052612305,26.081457138061523 C-31.393461227416992,26.081457138061523 -38.715396881103516,18.759523391723633 -38.715396881103516,9.810869216918945 C-38.715396881103516,9.810869216918945 -38.715396881103516,-9.916744232177734 -38.715396881103516,-9.916744232177734 C-38.715396881103516,-18.75025177001953 -31.48772430419922,-25.977359771728516 -22.654216766357422,-25.977359771728516 C-22.654216766357422,-25.977359771728516 22.359771728515625,-26.0283203125 22.359771728515625,-26.0283203125 C31.115951538085938,-26.0283203125 38.279842376708984,-18.864994049072266 38.279842376708984,-10.108816146850586 C38.279842376708984,-10.108816146850586 38.279842376708984,9.797162055969238 38.279842376708984,9.797162055969238 C38.279842376708984,18.725496292114258 30.97484016418457,26.030498504638672 22.046504974365234,26.030498504638672z"></path></g></g><g transform="matrix(1,0,0,1,152.656005859375,233.31100463867188)" opacity="1" style="display: block;"><g opacity="1" transform="matrix(1,0,0,1,0,0)"><g opacity="1" transform="matrix(1,0,0,1,302.4639892578125,124.60800170898438)"><path stroke-linecap="round" stroke-linejoin="round" fill-opacity="0" stroke="rgb(255,255,255)" stroke-opacity="1" stroke-width="12.04" d=" M-268.3543395996094,-124.84452819824219 C-268.3543395996094,-124.84452819824219 -313.41204833984375,-124.84452819824219 -313.41204833984375,-124.84452819824219"></path></g><g opacity="1" transform="matrix(1.000003695487976,0,0,1.000003695487976,0.0001068115234375,0)"><g opacity="1" transform="matrix(1,0,0,1,254.69000244140625,124.60800170898438)"><path stroke-linecap="round" stroke-linejoin="round" fill-opacity="0" stroke="rgb(255,255,255)" stroke-opacity="1" stroke-width="12.04" d=" M-290.16162109375,-124.84452819824219 C-290.16162109375,-124.84452819824219 -290.0848693847656,-124.84452819824219 -290.0848693847656,-124.84452819824219"></path></g></g></g><g opacity="1" transform="matrix(1,0,0,1,0,0)"><path stroke-linecap="round" stroke-linejoin="round" fill-opacity="0" stroke="rgb(255,255,255)" stroke-opacity="1" stroke-width="12.04" d=" M50.087860107421875,34.56208038330078 C50.087860107421875,34.56208038330078 -51.07080078125,34.677207946777344 -51.07080078125,34.677207946777344 C-57.73738479614258,34.677207946777344 -63.19186782836914,29.22272300720215 -63.19186782836914,22.556140899658203 C-63.19186782836914,22.556140899658203 -63.19186782836914,-22.32691764831543 -63.19186782836914,-22.32691764831543 C-63.19186782836914,-28.990236282348633 -57.740055084228516,-34.44203186035156 -51.07674026489258,-34.44203186035156 C-51.07674026489258,-34.44203186035156 50.09674072265625,-34.557159423828125 50.09674072265625,-34.557159423828125 C56.75786590576172,-34.557159423828125 62.20787048339844,-29.1071720123291 62.20787048339844,-22.446046829223633 C62.20787048339844,-22.446046829223633 62.20787048339844,22.44207000732422 62.20787048339844,22.44207000732422 C62.20787048339844,29.108076095581055 56.75386428833008,34.56208038330078 50.087860107421875,34.56208038330078z"></path></g></g><g transform="matrix(1,0,0,1,151.656005859375,358.8110046386719)" opacity="1" style="display: block;"><g opacity="1" transform="matrix(1,0,0,1,0,0)"><g opacity="1" transform="matrix(1,0,0,1,302.4639892578125,124.60800170898438)"><path stroke-linecap="round" stroke-linejoin="round" fill-opacity="0" stroke="rgb(255,255,255)" stroke-opacity="1" stroke-width="12.04" d=" M-267.8080139160156,-124.84400177001953 C-267.8080139160156,-124.84400177001953 -313.593994140625,-124.84400177001953 -313.593994140625,-124.84400177001953"></path></g><g opacity="1" transform="matrix(1.0000020265579224,0,0,1.0000020265579224,0.0000591278076171875,0)"><g opacity="1" transform="matrix(1,0,0,1,254.69000244140625,124.60800170898438)"><path stroke-linecap="round" stroke-linejoin="round" fill-opacity="0" stroke="rgb(255,255,255)" stroke-opacity="1" stroke-width="12.04" d=" M-290.739990234375,-124.84400177001953 C-290.739990234375,-124.84400177001953 -290.6619873046875,-124.84400177001953 -290.6619873046875,-124.84400177001953"></path></g></g></g><g opacity="1" transform="matrix(1,0,0,1,0,0)"><path stroke-linecap="round" stroke-linejoin="round" fill-opacity="0" stroke="rgb(255,255,255)" stroke-opacity="1" stroke-width="12.04" d=" M50.90599822998047,34.81100082397461 C50.90599822998047,34.81100082397461 -51.90599822998047,34.928001403808594 -51.90599822998047,34.928001403808594 C-58.50600051879883,34.928001403808594 -63.90599822998047,29.527999877929688 -63.90599822998047,22.92799949645996 C-63.90599822998047,22.92799949645996 -63.90599822998047,-22.68899917602539 -63.90599822998047,-22.68899917602539 C-63.90599822998047,-29.288999557495117 -58.50600051879883,-34.68899917602539 -51.90599822998047,-34.68899917602539 C-51.90599822998047,-34.68899917602539 50.90599822998047,-34.805999755859375 50.90599822998047,-34.805999755859375 C57.50600051879883,-34.805999755859375 62.90599822998047,-29.4060001373291 62.90599822998047,-22.805999755859375 C62.90599822998047,-22.805999755859375 62.90599822998047,22.81100082397461 62.90599822998047,22.81100082397461 C62.90599822998047,29.410999298095703 57.50600051879883,34.81100082397461 50.90599822998047,34.81100082397461z"></path></g></g><g transform="matrix(1,0,0,1,354.1929931640625,358.42999267578125)" opacity="1" style="display: block;"><g opacity="1" transform="matrix(1,0,0,1,0,0)"><path stroke-linecap="round" stroke-linejoin="round" fill-opacity="0" stroke="rgb(2,255,179)" stroke-opacity="1" stroke-width="12.04" d=" M-52.055999755859375,0 C-52.055999755859375,-28.75 -28.75,-52.055999755859375 0,-52.055999755859375 C28.75,-52.055999755859375 52.055999755859375,-28.75 52.055999755859375,0 C52.055999755859375,28.75 28.75,52.055999755859375 0,52.055999755859375 C-28.75,52.055999755859375 -52.055999755859375,28.75 -52.055999755859375,0z"></path></g><g opacity="1" transform="matrix(1,0,0,1,0,0)"><path stroke-linecap="round" stroke-linejoin="round" fill-opacity="0" stroke="rgb(255,255,255)" stroke-opacity="1" stroke-width="12.04" d=" M-19.969999313354492,-6.085000038146973 C-19.969999313354492,-6.085000038146973 -1.100000023841858,12.78499984741211 -1.100000023841858,12.78499984741211 C-1.100000023841858,12.78499984741211 55.470001220703125,-43.78499984741211 55.470001220703125,-43.78499984741211"></path></g></g><g class="com" style="display: none;"><g><path></path></g><g><path></path></g><g><path></path></g><g><path></path></g><g><path></path></g><g><path></path></g><g><path></path></g><g><path></path></g><g><path></path></g><g><path></path></g><g><path></path></g><g><path></path></g></g></g></svg>