<svg xmlns="http://www.w3.org/2000/svg" viewBox="0 0 500 500" width="500" height="500" preserveAspectRatio="xMidYMid meet" style="width: 100%; height: 100%; transform: translate3d(0px, 0px, 0px);"><defs><clipPath id="__lottie_element_112"><rect width="500" height="500" x="0" y="0"></rect></clipPath><filter id="__lottie_element_123" filterUnits="objectBoundingBox" x="0%" y="0%" width="100%" height="100%"><feComponentTransfer in="SourceGraphic"><feFuncA type="table" tableValues="1.0 0.0"></feFuncA></feComponentTransfer></filter><mask id="__lottie_element_122" mask-type="alpha"><g filter="url(#__lottie_element_123)"><rect width="500" height="500" x="0" y="0" fill="#ffffff" opacity="0"></rect><g transform="matrix(1,0,0,1,250,250)" opacity="1" style="display: block;"><path fill="rgb(255,0,0)" fill-opacity="1" d=" M119.83100128173828,-110.93000030517578 C119.83100128173828,-110.93000030517578 24.570999145507812,-1.5640000104904175 24.570999145507812,-1.5640000104904175 C24.570999145507812,-1.5640000104904175 24.570999145507812,109.68699645996094 24.570999145507812,109.68699645996094 C24.570999145507812,109.68699645996094 -24.55900001525879,158.8419952392578 -24.55900001525879,158.8419952392578 C-24.55900001525879,158.8419952392578 -24.570999145507812,-1.5640000104904175 -24.570999145507812,-1.5640000104904175 C-24.570999145507812,-1.5640000104904175 -120.33100128173828,-110.93000030517578 -120.33100128173828,-110.93000030517578 M120.8280029296875,-110.96499633789062 C120.8280029296875,-110.96499633789062 -120.8280029296875,-110.96499633789062 -120.8280029296875,-110.96499633789062 C-120.8280029296875,-110.96499633789062 -120.8280029296875,-160.11900329589844 -120.8280029296875,-160.11900329589844 C-120.8280029296875,-160.11900329589844 120.8280029296875,-160.11900329589844 120.8280029296875,-160.11900329589844 C120.8280029296875,-160.11900329589844 120.8280029296875,-110.96499633789062 120.8280029296875,-110.96499633789062z"></path><g opacity="1" transform="matrix(1,0,0,1,0,0)"><path stroke-linecap="round" stroke-linejoin="round" fill-opacity="0" stroke="rgb(18,19,49)" stroke-opacity="1" stroke-width="0" d=" M119.83100128173828,-110.93000030517578 C119.83100128173828,-110.93000030517578 24.570999145507812,-1.5640000104904175 24.570999145507812,-1.5640000104904175 C24.570999145507812,-1.5640000104904175 24.570999145507812,109.68699645996094 24.570999145507812,109.68699645996094 C24.570999145507812,109.68699645996094 -24.55900001525879,158.8419952392578 -24.55900001525879,158.8419952392578 C-24.55900001525879,158.8419952392578 -24.570999145507812,-1.5640000104904175 -24.570999145507812,-1.5640000104904175 C-24.570999145507812,-1.5640000104904175 -120.33100128173828,-110.93000030517578 -120.33100128173828,-110.93000030517578"></path></g><g opacity="1" transform="matrix(1,0,0,1,0,0)"><path stroke-linecap="round" stroke-linejoin="round" fill-opacity="0" stroke="rgb(8,168,138)" stroke-opacity="1" stroke-width="0" d=" M120.8280029296875,-110.96499633789062 C120.8280029296875,-110.96499633789062 -120.8280029296875,-110.96499633789062 -120.8280029296875,-110.96499633789062 C-120.8280029296875,-110.96499633789062 -120.8280029296875,-160.11900329589844 -120.8280029296875,-160.11900329589844 C-120.8280029296875,-160.11900329589844 120.8280029296875,-160.11900329589844 120.8280029296875,-160.11900329589844 C120.8280029296875,-160.11900329589844 120.8280029296875,-110.96499633789062 120.8280029296875,-110.96499633789062z"></path></g></g></g></mask><clipPath id="__lottie_element_127"><path d="M0,0 L500,0 L500,500 L0,500z"></path></clipPath></defs><g clip-path="url(#__lottie_element_112)"><g mask="url(#__lottie_element_122)" style="display: block;"><g clip-path="url(#__lottie_element_127)" transform="matrix(1,0,0,1,0,0)" opacity="1"><g style="display: none;" transform="matrix(1,0,0,1,98,149)" opacity="1"><g opacity="1" transform="matrix(1,0,0,1,0,0)"><path stroke-linecap="round" stroke-linejoin="round" fill-opacity="0" stroke="rgb(255,255,255)" stroke-opacity="1" stroke-width="12.04" d=" M169.8769989013672,38.35300064086914 C169.8769989013672,60.9370002746582 151.56900024414062,79.24600219726562 128.98500061035156,79.24600219726562 C106.4010009765625,79.24600219726562 88.09300231933594,60.9370002746582 88.09300231933594,38.35300064086914 C88.09300231933594,15.769000053405762 106.4010009765625,-2.5390000343322754 128.98500061035156,-2.5390000343322754 C151.56900024414062,-2.5390000343322754 169.8769989013672,15.769000053405762 169.8769989013672,38.35300064086914z"></path></g></g><g style="display: none;" transform="matrix(1,0,0,1,157.99998474121094,148)" opacity="1"><g opacity="1" transform="matrix(1,0,0,1,0,0)"><path stroke-linecap="round" stroke-linejoin="round" fill-opacity="0" stroke="rgb(255,255,255)" stroke-opacity="1" stroke-width="12.04" d=" M128.98500061035156,78.38300323486328 C128.98500061035156,78.38300323486328 88.95500183105469,38.35300064086914 88.95500183105469,38.35300064086914 C88.95500183105469,38.35300064086914 128.98500061035156,-1.6759999990463257 128.98500061035156,-1.6759999990463257 C128.98500061035156,-1.6759999990463257 169.01499938964844,38.35300064086914 169.01499938964844,38.35300064086914 C169.01499938964844,38.35300064086914 128.98500061035156,78.38300323486328 128.98500061035156,78.38300323486328z"></path></g></g><g style="display: none;" transform="matrix(0.7071067690849304,0.7071067690849304,-0.7071067690849304,0.7071067690849304,182.89849853515625,41.02716064453125)" opacity="1"><g opacity="1" transform="matrix(1,0,0,1,0,0)"><path stroke-linecap="round" stroke-linejoin="round" fill-opacity="0" stroke="rgb(255,255,255)" stroke-opacity="1" stroke-width="12.04" d=" M128.98500061035156,78.38300323486328 C128.98500061035156,78.38300323486328 88.95500183105469,38.35300064086914 88.95500183105469,38.35300064086914 C88.95500183105469,38.35300064086914 128.98500061035156,-1.6759999990463257 128.98500061035156,-1.6759999990463257 C128.98500061035156,-1.6759999990463257 169.01499938964844,38.35300064086914 169.01499938964844,38.35300064086914 C169.01499938964844,38.35300064086914 128.98500061035156,78.38300323486328 128.98500061035156,78.38300323486328z"></path></g></g><g style="display: block;" transform="matrix(1,0,0,1,120,533)" opacity="1"><g opacity="1" transform="matrix(1,0,0,1,0,0)"><path stroke-linecap="round" stroke-linejoin="round" fill-opacity="0" stroke="rgb(2,255,179)" stroke-opacity="1" stroke-width="12.04" d=" M129.48500061035156,61.86899948120117 C129.48500061035156,61.86899948120117 105.97000122070312,38.35300064086914 105.97000122070312,38.35300064086914 C105.97000122070312,38.35300064086914 129.48500061035156,14.838000297546387 129.48500061035156,14.838000297546387 C129.48500061035156,14.838000297546387 153,38.35300064086914 153,38.35300064086914 C153,38.35300064086914 129.48500061035156,61.86899948120117 129.48500061035156,61.86899948120117z"></path></g></g><g style="display: block;" transform="matrix(-0.8596892952919006,-0.510817289352417,0.510817289352417,-0.8596892952919006,341.21051025390625,670.4678955078125)" opacity="1"><g opacity="1" transform="matrix(1,0,0,1,0,0)"><path stroke-linecap="round" stroke-linejoin="round" fill-opacity="0" stroke="rgb(2,255,179)" stroke-opacity="1" stroke-width="12.04" d=" M129.48500061035156,61.86899948120117 C129.48500061035156,61.86899948120117 105.97000122070312,38.35300064086914 105.97000122070312,38.35300064086914 C105.97000122070312,38.35300064086914 129.48500061035156,14.838000297546387 129.48500061035156,14.838000297546387 C129.48500061035156,14.838000297546387 153,38.35300064086914 153,38.35300064086914 C153,38.35300064086914 129.48500061035156,61.86899948120117 129.48500061035156,61.86899948120117z"></path></g></g><g style="display: block;" transform="matrix(0.8596892952919006,0.510817289352417,-0.510817289352417,0.8596892952919006,157.75950622558594,276.4856872558594)" opacity="1"><g opacity="1" transform="matrix(1,0,0,1,0,0)"><path stroke-linecap="round" stroke-linejoin="round" fill-opacity="0" stroke="rgb(2,255,179)" stroke-opacity="1" stroke-width="12.04" d=" M129.48500061035156,61.86899948120117 C129.48500061035156,61.86899948120117 105.97000122070312,38.35300064086914 105.97000122070312,38.35300064086914 C105.97000122070312,38.35300064086914 129.48500061035156,14.838000297546387 129.48500061035156,14.838000297546387 C129.48500061035156,14.838000297546387 153,38.35300064086914 153,38.35300064086914 C153,38.35300064086914 129.48500061035156,61.86899948120117 129.48500061035156,61.86899948120117z"></path></g></g><g style="display: none;" transform="matrix(1,0,0,1,69,94)" opacity="1"><g opacity="1" transform="matrix(1,0,0,1,0,0)"><path stroke-linecap="round" stroke-linejoin="round" fill-opacity="0" stroke="rgb(255,255,255)" stroke-opacity="1" stroke-width="12.04" d=" M128.98500061035156,8.71399974822998 C128.98500061035156,8.71399974822998 88.95500183105469,67.99299621582031 88.95500183105469,67.99299621582031 C88.95500183105469,67.99299621582031 169.01499938964844,67.99299621582031 169.01499938964844,67.99299621582031 C169.01499938964844,67.99299621582031 128.98500061035156,8.71399974822998 128.98500061035156,8.71399974822998z"></path></g></g><g transform="matrix(0.5591928958892822,0.8290375471115112,-0.8290375471115112,0.5591928958892822,267.653564453125,26.972854614257812)" opacity="1" style="display: none;"><g opacity="1" transform="matrix(1,0,0,1,0,0)"><path stroke-linecap="round" stroke-linejoin="round" fill-opacity="0" stroke="rgb(255,255,255)" stroke-opacity="1" stroke-width="12.04" d=" M128.98500061035156,8.71399974822998 C128.98500061035156,8.71399974822998 88.95500183105469,67.99299621582031 88.95500183105469,67.99299621582031 C88.95500183105469,67.99299621582031 169.01499938964844,67.99299621582031 169.01499938964844,67.99299621582031 C169.01499938964844,67.99299621582031 128.98500061035156,8.71399974822998 128.98500061035156,8.71399974822998z"></path></g></g><g style="display: none;" transform="matrix(1,0,0,1,121,162)" opacity="1"><g opacity="1" transform="matrix(1,0,0,1,0,0)"><path stroke-linecap="round" stroke-linejoin="round" fill-opacity="0" stroke="rgb(255,255,255)" stroke-opacity="1" stroke-width="12.04" d=" M169.8769989013672,38.35300064086914 C169.8769989013672,60.9370002746582 151.56900024414062,79.24600219726562 128.98500061035156,79.24600219726562 C106.4010009765625,79.24600219726562 88.09300231933594,60.9370002746582 88.09300231933594,38.35300064086914 C88.09300231933594,15.769000053405762 106.4010009765625,-2.5390000343322754 128.98500061035156,-2.5390000343322754 C151.56900024414062,-2.5390000343322754 169.8769989013672,15.769000053405762 169.8769989013672,38.35300064086914z"></path></g></g><g transform="matrix(1,0,0,1,82,138)" opacity="1" style="display: none;"><g opacity="1" transform="matrix(1,0,0,1,0,0)"><path stroke-linecap="round" stroke-linejoin="round" fill-opacity="0" stroke="rgb(255,255,255)" stroke-opacity="1" stroke-width="12.04" d=" M128.98500061035156,78.38300323486328 C128.98500061035156,78.38300323486328 88.95500183105469,38.35300064086914 88.95500183105469,38.35300064086914 C88.95500183105469,38.35300064086914 128.98500061035156,-1.6759999990463257 128.98500061035156,-1.6759999990463257 C128.98500061035156,-1.6759999990463257 169.01499938964844,38.35300064086914 169.01499938964844,38.35300064086914 C169.01499938964844,38.35300064086914 128.98500061035156,78.38300323486328 128.98500061035156,78.38300323486328z"></path></g></g></g></g><g transform="matrix(1,0,0,1,250,250)" opacity="1" style="display: block;"><g opacity="1" transform="matrix(1,0,0,1,0,0)"><path stroke-linecap="round" stroke-linejoin="round" fill-opacity="0" stroke="rgb(255,255,255)" stroke-opacity="1" stroke-width="12.04" d=" M119.83100128173828,-110.93000030517578 C119.83100128173828,-110.93000030517578 24.570999145507812,-1.5640000104904175 24.570999145507812,-1.5640000104904175 C24.570999145507812,-1.5640000104904175 24.570999145507812,109.68699645996094 24.570999145507812,109.68699645996094 C24.570999145507812,109.68699645996094 -24.55900001525879,158.8419952392578 -24.55900001525879,158.8419952392578 C-24.55900001525879,158.8419952392578 -24.570999145507812,-1.5640000104904175 -24.570999145507812,-1.5640000104904175 C-24.570999145507812,-1.5640000104904175 -120.33100128173828,-110.93000030517578 -120.33100128173828,-110.93000030517578"></path></g><g opacity="1" transform="matrix(1,0,0,1,0,0)"><path stroke-linecap="round" stroke-linejoin="round" fill-opacity="0" stroke="rgb(2,255,179)" stroke-opacity="1" stroke-width="12.04" d=" M120.8280029296875,-110.96499633789062 C120.8280029296875,-110.96499633789062 -120.8280029296875,-110.96499633789062 -120.8280029296875,-110.96499633789062 C-120.8280029296875,-110.96499633789062 -120.8280029296875,-160.11900329589844 -120.8280029296875,-160.11900329589844 C-120.8280029296875,-160.11900329589844 120.8280029296875,-160.11900329589844 120.8280029296875,-160.11900329589844 C120.8280029296875,-160.11900329589844 120.8280029296875,-110.96499633789062 120.8280029296875,-110.96499633789062z"></path></g></g><g class="com" style="display: none;"><g><path></path></g><g><path></path></g><g><path></path></g><g><path></path></g><g><path></path></g><g><path></path></g><g><path></path></g><g><path></path></g><g><path></path></g><g><path></path></g><g><path></path></g><g><path></path></g></g></g></svg>