<svg xmlns="http://www.w3.org/2000/svg" width="67" height="51" viewBox="0 0 67 51" fill="none"><path opacity="0.1" d="M23.1082 22.2869C25.6605 23.4718 27.6204 25.2493 28.9878 27.6193C30.4463 29.8981 31.1755 32.5871 31.1755 35.6863C31.1755 40.244 29.717 43.9357 26.8 46.7614C23.883 49.5871 20.1456 51 15.5878 51C11.0299 51 7.29252 49.5871 4.37551 46.7614C1.4585 43.9357 0 40.244 0 35.6863C0 33.5898 0.273469 31.4933 0.820408 29.3968C1.36735 27.3003 2.59796 24.2011 4.51225 20.0992L13.2633 0H29.5347L23.1082 22.2869ZM58.9327 22.2869C61.485 23.4718 63.4449 25.2493 64.8122 27.6193C66.2708 29.8981 67 32.5871 67 35.6863C67 40.244 65.5415 43.9357 62.6245 46.7614C59.7075 49.5871 55.9701 51 51.4122 51C46.8544 51 43.117 49.5871 40.2 46.7614C37.283 43.9357 35.8245 40.244 35.8245 35.6863C35.8245 33.5898 36.098 31.4933 36.6449 29.3968C37.1918 27.3003 38.4225 24.2011 40.3367 20.0992L49.0878 0H65.3592L58.9327 22.2869Z" fill="white"></path></svg>