<svg xmlns="http://www.w3.org/2000/svg" width="1440" height="2644" viewBox="0 0 1440 2644" fill="none"><rect width="1440" height="2644" fill="#070F2D"></rect><mask id="mask0_65_42" style="mask-type:alpha" maskUnits="userSpaceOnUse" x="0" y="0" width="1440" height="2644"><rect width="1440" height="2644" fill="#1A41B2"></rect></mask><g mask="url(#mask0_65_42)"><g filter="url(#filter0_f_65_42)"><path fill-rule="evenodd" clip-rule="evenodd" d="M1225.77 106.214C1317.79 119.645 1362.43 221.548 1417.64 298.087C1461.11 358.34 1494.75 420.439 1505.84 494.469C1519.61 586.338 1556.98 702.567 1487.17 762.004C1417.12 821.64 1316.88 732.399 1225.77 732.911C1133.55 733.429 1027.72 830.632 961.484 764.958C895.441 699.477 983.764 588.566 985.282 494.469C986.747 403.634 922.541 309.491 970.067 232.764C1022.76 147.686 1128.33 91.9934 1225.77 106.214Z" fill="#02FFB3"></path><path fill-rule="evenodd" clip-rule="evenodd" d="M171.896 -91.3092C254.843 -93.8306 357.738 -144.429 411.088 -79.3748C464.755 -13.9335 387.826 80.1741 382.447 165.434C377.753 239.819 418.57 316.04 382.069 380.543C336.884 460.394 261.771 544.841 171.896 537.516C83.089 530.278 57.7305 411.16 -7.27237 348.81C-76.8254 282.094 -205.191 262.366 -216.012 165.434C-226.943 67.5212 -134.353 -11.737 -53.4982 -65.2525C12.5039 -108.937 93.3298 -88.921 171.896 -91.3092Z" fill="#4B1AB2"></path><path fill-rule="evenodd" clip-rule="evenodd" d="M722.098 477.072C869.029 474.739 1047.09 356.121 1145.03 450.225C1244.15 545.451 1090.33 686.717 1072.27 813.505C1058.32 911.377 1134.82 1028.57 1052.8 1097.56C970.868 1166.48 836.768 1107.2 722.098 1108.04C605.515 1108.89 468.001 1173.38 385.711 1102.44C303.427 1031.51 391.546 913.185 380.44 813.505C366.811 691.172 220.469 556.022 314.517 463.413C407.428 371.922 580.779 479.316 722.098 477.072Z" fill="#092473"></path><path fill-rule="evenodd" clip-rule="evenodd" d="M-190.615 285.501C-47.8702 307.102 -29.1269 512.358 78.6888 610.489C201.508 722.276 453.335 718.636 469.199 886.046C484.802 1050.71 268.923 1125.84 136.519 1220.78C36.0645 1292.8 -69.1608 1341.57 -190.615 1359.16C-340.156 1380.81 -523.979 1445.45 -625.599 1331.13C-727.074 1216.97 -624.749 1039.73 -611.155 886.046C-599.682 756.325 -627.542 620.717 -553.399 514.839C-467.332 391.933 -336.795 263.381 -190.615 285.501Z" fill="black"></path><path fill-rule="evenodd" clip-rule="evenodd" d="M393.408 80.9467C575.963 70.024 733.487 155.385 839.871 245.743C938.709 329.691 962.982 433.923 927.681 534.733C891.561 637.885 801.213 730.878 651.173 784.619C482.596 845 256.561 901.487 97.9674 831.919C-53.8143 765.339 39.3126 624.569 28.2921 511.39C20.8481 434.941 -12.2826 361.413 45.5182 293.271C124.627 200.008 220.892 91.2687 393.408 80.9467Z" fill="#1A41B2"></path><path fill-rule="evenodd" clip-rule="evenodd" d="M1258.72 -124.009C1335.25 -135.861 1418.09 -150.461 1481.31 -104.736C1552.73 -53.0705 1599.95 33.5635 1600.3 123.079C1600.66 212.862 1556.55 303.627 1483.11 352.744C1418.02 396.282 1335.16 366.164 1258.72 351.557C1201.24 340.573 1155.85 309.9 1104.93 280.475C1018.53 230.539 866.584 224.586 863.37 123.079C860.188 22.5646 1010.77 7.55444 1094.63 -44.8575C1148.28 -78.3858 1196.57 -114.385 1258.72 -124.009Z" fill="#052684"></path><path fill-rule="evenodd" clip-rule="evenodd" d="M726.115 -108.29C813.781 -94.2663 872.935 -18.7613 929.15 51.5875C977.998 112.716 1019.61 180.649 1020.14 259.657C1020.67 339.179 972.751 402.957 931.963 470.609C870.118 573.185 843.766 745.913 726.115 747.333C608.762 748.751 591.015 567.585 515.359 475.64C451.894 398.511 338.279 359.603 324.836 259.657C310.444 152.65 369.419 46.6435 447.971 -25.3837C522.776 -93.9749 626.939 -124.154 726.115 -108.29Z" fill="#1A41B2"></path><path fill-rule="evenodd" clip-rule="evenodd" d="M-219.461 2166.21C-311.487 2179.65 -356.124 2281.55 -411.337 2358.09C-454.801 2418.34 -488.441 2480.44 -499.535 2554.47C-513.302 2646.34 -550.673 2762.57 -480.858 2822C-410.811 2881.64 -310.573 2792.4 -219.461 2792.91C-127.241 2793.43 -21.4132 2890.63 44.8233 2824.96C110.866 2759.48 22.5429 2648.57 21.0253 2554.47C19.5604 2463.63 83.7657 2369.49 36.2402 2292.76C-16.4569 2207.69 -122.025 2151.99 -219.461 2166.21Z" fill="#02FFB3"></path><path fill-rule="evenodd" clip-rule="evenodd" d="M284.208 2537.07C137.277 2534.74 -40.7812 2416.12 -138.727 2510.22C-237.842 2605.45 -84.0264 2746.72 -65.9615 2873.5C-52.0167 2971.38 -128.513 3088.57 -46.4945 3157.56C35.438 3226.48 169.539 3167.2 284.208 3168.04C400.791 3168.89 538.305 3233.38 620.595 3162.44C702.879 3091.51 614.76 2973.19 625.866 2873.5C639.495 2751.17 785.837 2616.02 691.789 2523.41C598.878 2431.92 425.527 2539.32 284.208 2537.07Z" fill="#092473"></path><path fill-rule="evenodd" clip-rule="evenodd" d="M1196.92 2345.5C1054.18 2367.1 1035.43 2572.36 927.617 2670.49C804.798 2782.28 552.971 2778.64 537.107 2946.05C521.504 3110.71 737.382 3185.84 869.787 3280.78C970.241 3352.8 1075.47 3401.57 1196.92 3419.16C1346.46 3440.81 1530.28 3505.45 1631.9 3391.13C1733.38 3276.97 1631.05 3099.73 1617.46 2946.05C1605.99 2816.32 1633.85 2680.72 1559.7 2574.84C1473.64 2451.93 1343.1 2323.38 1196.92 2345.5Z" fill="black"></path><path fill-rule="evenodd" clip-rule="evenodd" d="M612.898 2140.95C430.342 2130.02 272.818 2215.39 166.434 2305.74C67.5967 2389.69 43.3236 2493.92 78.6243 2594.73C114.745 2697.88 205.093 2790.88 355.133 2844.62C523.71 2905 749.744 2961.49 908.338 2891.92C1060.12 2825.34 966.993 2684.57 978.014 2571.39C985.458 2494.94 1018.59 2421.41 960.787 2353.27C881.679 2260.01 785.414 2151.27 612.898 2140.95Z" fill="#1A41B2"></path><path fill-rule="evenodd" clip-rule="evenodd" d="M-252.411 1935.99C-328.947 1924.14 -411.785 1909.54 -474.999 1955.26C-546.423 2006.93 -593.644 2093.56 -593.998 2183.08C-594.353 2272.86 -550.239 2363.63 -476.806 2412.74C-411.715 2456.28 -328.849 2426.16 -252.411 2411.56C-194.932 2400.57 -149.542 2369.9 -98.6261 2340.47C-12.2193 2290.54 139.723 2284.59 142.937 2183.08C146.119 2082.56 -4.46658 2067.55 -88.3271 2015.14C-141.973 1981.61 -190.261 1945.62 -252.411 1935.99Z" fill="#052684"></path><path fill-rule="evenodd" clip-rule="evenodd" d="M280.191 1951.71C192.526 1965.73 133.371 2041.24 77.156 2111.59C28.3086 2172.72 -13.3027 2240.65 -13.8329 2319.66C-14.3666 2399.18 33.5557 2462.96 74.3439 2530.61C136.188 2633.19 162.541 2805.91 280.191 2807.33C397.544 2808.75 415.291 2627.59 490.948 2535.64C554.413 2458.51 668.028 2419.6 681.47 2319.66C695.863 2212.65 636.887 2106.64 558.335 2034.62C483.53 1966.03 379.367 1935.85 280.191 1951.71Z" fill="#1A41B2"></path><path fill-rule="evenodd" clip-rule="evenodd" d="M1198.12 1650.12C1115.18 1647.6 1012.28 1597 958.931 1662.05C905.264 1727.5 982.193 1821.6 987.573 1906.86C992.266 1981.25 951.45 2057.47 987.95 2121.97C1033.14 2201.82 1108.25 2286.27 1198.12 2278.95C1286.93 2271.71 1312.29 2152.59 1377.29 2090.24C1446.84 2023.52 1575.21 2003.8 1586.03 1906.86C1596.96 1808.95 1504.37 1729.69 1423.52 1676.18C1357.52 1632.49 1276.69 1652.51 1198.12 1650.12Z" fill="#4B1AB2" fill-opacity="0.49"></path></g></g><defs><filter id="filter0_f_65_42" x="-1070" y="-536" width="3146.31" height="4393" filterUnits="userSpaceOnUse" color-interpolation-filters="sRGB"><feGaussianBlur stdDeviation="200"></feGaussianBlur></filter></defs></svg>