<svg xmlns="http://www.w3.org/2000/svg" width="1440" height="3255" viewBox="0 0 1440 3255" fill="none"><rect x="-175" width="1790" height="3255" fill="#070F2D"></rect><mask id="mask0_147_1270" style="mask-type:alpha" maskUnits="userSpaceOnUse" x="-175" y="0" width="1790" height="3255"><rect x="-175" width="1790" height="3255" fill="#1A41B2"></rect></mask><g mask="url(#mask0_147_1270)"><g filter="url(#filter0_f_147_1270)"><path fill-rule="evenodd" clip-rule="evenodd" d="M18.2355 550.375C117.166 569.532 130.156 751.57 204.878 838.601C289.998 937.742 464.528 934.515 475.522 1082.99C486.336 1229.02 336.721 1295.65 244.957 1379.85C175.337 1443.73 102.41 1486.99 18.2355 1502.58C-85.4039 1521.79 -212.804 1579.11 -283.232 1477.72C-353.559 1376.48 -282.642 1219.29 -273.221 1082.99C-265.27 967.94 -284.578 847.671 -233.193 753.77C-173.544 644.767 -83.075 530.756 18.2355 550.375Z" fill="black"></path><path fill-rule="evenodd" clip-rule="evenodd" d="M1517.68 462.407C1632.1 483.772 1687.6 645.868 1756.25 767.618C1810.29 863.461 1852.12 962.241 1865.91 1080C1883.03 1226.14 1929.5 1411.02 1842.69 1505.57C1755.6 1600.43 1630.97 1458.47 1517.68 1459.29C1403.02 1460.11 1271.43 1614.73 1189.08 1510.27C1106.96 1406.1 1216.78 1229.68 1218.67 1080C1220.49 935.51 1140.66 785.759 1199.75 663.708C1265.27 528.377 1396.53 439.786 1517.68 462.407Z" fill="#02FFB3"></path><path fill-rule="evenodd" clip-rule="evenodd" d="M38.5048 -150.269C141.639 -154.28 269.575 -234.767 335.909 -131.285C402.637 -27.1882 306.985 122.508 300.297 258.13C294.461 376.454 345.211 497.697 299.827 600.302C243.645 727.32 150.252 861.65 38.5048 849.998C-71.9147 838.484 -103.445 649.005 -184.267 549.824C-270.747 443.7 -430.352 412.319 -443.807 258.13C-457.398 102.381 -342.275 -23.6944 -241.743 -108.821C-159.678 -178.31 -59.1816 -146.47 38.5048 -150.269Z" fill="#4B1AB2"></path><path fill-rule="evenodd" clip-rule="evenodd" d="M722.608 753.85C905.297 750.139 1126.69 561.455 1248.47 711.144C1371.71 862.62 1180.46 1087.33 1158 1289.01C1140.66 1444.69 1235.77 1631.12 1133.79 1740.86C1031.92 1850.48 865.184 1756.19 722.608 1757.52C577.652 1758.88 406.672 1861.47 304.355 1748.62C202.045 1635.79 311.61 1447.57 297.802 1289.01C280.856 1094.42 98.899 879.435 215.835 732.122C331.358 586.589 546.896 757.42 722.608 753.85Z" fill="#092473"></path><path fill-rule="evenodd" clip-rule="evenodd" d="M1389.82 -202.285C1484.98 -221.137 1587.98 -244.361 1666.58 -171.627C1755.39 -89.4433 1814.1 48.3646 1814.54 190.756C1814.98 333.573 1760.13 477.952 1668.83 556.082C1587.89 625.337 1484.86 577.43 1389.82 554.195C1318.35 536.722 1261.92 487.93 1198.61 441.124C1091.18 361.691 902.255 352.222 898.26 190.756C894.303 30.8688 1081.54 6.99231 1185.81 -76.3789C1252.51 -129.712 1312.55 -186.975 1389.82 -202.285Z" fill="#052684"></path><path fill-rule="evenodd" clip-rule="evenodd" d="M1155.17 556.803C1289.21 539.434 1404.88 675.174 1482.99 818.859C1555.56 952.351 1573.38 1118.1 1547.47 1278.41C1520.94 1442.44 1454.61 1590.31 1344.44 1675.77C1220.66 1771.79 1054.69 1861.61 938.244 1750.98C826.798 1645.11 895.177 1421.26 887.085 1241.29C881.619 1119.72 857.293 1002.8 899.733 894.437C957.819 746.132 1028.5 573.217 1155.17 556.803Z" fill="#1A41B2"></path><path fill-rule="evenodd" clip-rule="evenodd" d="M727.601 -177.28C836.602 -154.973 910.152 -34.8679 980.048 77.0354C1040.78 174.272 1092.52 282.333 1093.18 408.01C1093.84 534.505 1034.26 635.955 983.545 743.569C906.65 906.736 873.884 1181.49 727.601 1183.75C581.688 1186.01 559.622 897.828 465.554 751.572C386.643 628.883 245.378 566.993 228.664 408.01C210.769 237.794 284.097 69.1709 381.766 -45.4021C474.776 -154.509 604.289 -202.515 727.601 -177.28Z" fill="#1A41B2"></path></g></g><defs><filter id="filter0_f_147_1270" x="-844.905" y="-621.358" width="3138.64" height="2823.36" filterUnits="userSpaceOnUse" color-interpolation-filters="sRGB"><feGaussianBlur stdDeviation="200"></feGaussianBlur></filter></defs></svg>