<svg xmlns="http://www.w3.org/2000/svg" width="1440" height="13748" viewBox="0 0 1440 13748" fill="none"><rect width="1440" height="18044" fill="#070F2D"></rect><mask id="mask0_1155_5346" style="mask-type:alpha" maskUnits="userSpaceOnUse" x="0" y="0" width="1440" height="18044"><rect width="1440" height="18044" fill="#1A41B2"></rect></mask><g mask="url(#mask0_1155_5346)"><g filter="url(#filter0_f_1155_5346)"><path fill-rule="evenodd" clip-rule="evenodd" d="M1225.77 131.603C1317.79 148.244 1362.43 274.505 1417.64 369.339C1461.11 443.995 1494.75 520.937 1505.84 612.662C1519.61 726.491 1556.98 870.503 1487.17 944.148C1417.12 1018.04 1316.88 907.465 1225.77 908.1C1133.55 908.742 1027.72 1029.18 961.484 947.808C895.441 866.674 983.764 729.252 985.282 612.662C986.747 500.115 922.541 383.47 970.067 288.402C1022.76 182.988 1128.33 113.983 1225.77 131.603Z" fill="#02FFB3"></path><path fill-rule="evenodd" clip-rule="evenodd" d="M171.896 -113.134C254.843 -116.258 357.738 -178.952 411.088 -98.3473C464.755 -17.2634 387.826 99.3388 382.447 204.979C377.753 297.144 418.57 391.584 382.069 471.505C336.884 570.444 261.771 675.077 171.896 666C83.089 657.032 57.7305 509.441 -7.27237 432.187C-76.8254 349.524 -205.191 325.08 -216.012 204.979C-226.943 83.6616 -134.353 -14.5419 -53.4982 -80.8493C12.5039 -134.976 93.3298 -110.175 171.896 -113.134Z" fill="#4B1AB2"></path><path fill-rule="evenodd" clip-rule="evenodd" d="M722.098 591.108C869.029 588.217 1047.09 441.246 1145.03 557.843C1244.15 675.832 1090.33 850.864 1072.27 1007.96C1058.32 1129.22 1134.82 1274.44 1052.8 1359.91C970.868 1445.3 836.768 1371.85 722.098 1372.89C605.515 1373.95 468.001 1453.86 385.711 1365.96C303.427 1278.07 391.546 1131.47 380.44 1007.96C366.811 856.385 220.469 688.929 314.517 574.184C407.428 460.824 580.779 593.889 722.098 591.108Z" fill="#092473"></path><path fill-rule="evenodd" clip-rule="evenodd" d="M-190.615 353.746C-47.8702 380.51 -29.1269 634.829 78.6888 756.416C201.508 894.923 453.335 890.414 469.199 1097.84C484.802 1301.86 268.923 1394.95 136.519 1512.58C36.0645 1601.83 -69.1608 1662.25 -190.615 1684.04C-340.156 1710.87 -523.979 1790.96 -625.599 1649.31C-727.074 1507.86 -624.749 1288.26 -611.155 1097.84C-599.682 937.111 -627.542 769.088 -553.399 637.903C-467.332 485.617 -336.795 326.338 -190.615 353.746Z" fill="black"></path><path fill-rule="evenodd" clip-rule="evenodd" d="M393.408 100.296C575.963 86.7625 733.487 192.528 839.871 304.484C938.709 408.498 962.982 537.645 927.681 662.552C891.561 790.36 801.213 905.582 651.173 972.169C482.596 1046.98 256.561 1116.97 97.9674 1030.77C-53.8143 948.28 39.3126 773.862 28.2921 633.629C20.8481 538.906 -12.2826 447.803 45.5182 363.372C124.627 247.816 220.892 113.085 393.408 100.296Z" fill="#1A41B2"></path><path fill-rule="evenodd" clip-rule="evenodd" d="M1258.72 -153.651C1335.25 -168.336 1418.09 -186.426 1481.31 -129.77C1552.73 -65.7556 1599.95 41.5867 1600.3 152.499C1600.66 263.743 1556.55 376.204 1483.11 437.061C1418.02 491.006 1335.16 453.69 1258.72 435.591C1201.24 421.982 1155.85 383.976 1104.93 347.517C1018.53 285.645 866.584 278.27 863.37 152.499C860.188 27.9587 1010.77 9.3607 1094.63 -55.5794C1148.28 -97.1219 1196.57 -141.726 1258.72 -153.651Z" fill="#052684"></path><path fill-rule="evenodd" clip-rule="evenodd" d="M726.115 -134.174C813.781 -116.798 872.935 -23.2453 929.15 63.9192C977.998 139.659 1019.61 223.831 1020.14 321.724C1020.67 420.255 972.751 499.277 931.963 583.1C870.118 710.196 843.766 924.21 726.115 925.97C608.762 927.726 591.015 703.257 515.359 589.334C451.894 493.768 338.279 445.561 324.836 321.724C310.444 189.139 369.419 57.7934 447.971 -31.4507C522.776 -116.437 626.939 -153.83 726.115 -134.174Z" fill="#1A41B2"></path><path fill-rule="evenodd" clip-rule="evenodd" d="M-219.461 2684.01C-311.487 2700.65 -356.124 2826.91 -411.337 2921.75C-454.801 2996.4 -488.441 3073.34 -499.535 3165.07C-513.302 3278.9 -550.673 3422.91 -480.858 3496.55C-410.811 3570.44 -310.573 3459.87 -219.461 3460.51C-127.241 3461.15 -21.4132 3581.59 44.8233 3500.21C110.866 3419.08 22.5429 3281.66 21.0253 3165.07C19.5604 3052.52 83.7657 2935.88 36.2402 2840.81C-16.4569 2735.39 -122.025 2666.39 -219.461 2684.01Z" fill="#02FFB3"></path><path fill-rule="evenodd" clip-rule="evenodd" d="M284.208 3143.51C137.277 3140.62 -40.7812 2993.65 -138.727 3110.25C-237.842 3228.24 -84.0264 3403.27 -65.9615 3560.36C-52.0167 3681.63 -128.513 3826.84 -46.4945 3912.32C35.438 3997.71 169.539 3924.26 284.208 3925.3C400.791 3926.36 538.305 4006.27 620.595 3918.37C702.879 3830.48 614.76 3683.87 625.866 3560.36C639.495 3408.79 785.837 3241.34 691.789 3126.59C598.878 3013.23 425.527 3146.29 284.208 3143.51Z" fill="#092473"></path><path fill-rule="evenodd" clip-rule="evenodd" d="M1196.92 2906.15C1054.18 2932.91 1035.43 3187.23 927.617 3308.82C804.798 3447.33 552.971 3442.82 537.107 3650.24C521.504 3854.26 737.382 3947.35 869.787 4064.98C970.241 4154.23 1075.47 4214.66 1196.92 4236.45C1346.46 4263.28 1530.28 4343.37 1631.9 4201.72C1733.38 4060.27 1631.05 3840.67 1617.46 3650.24C1605.99 3489.52 1633.85 3321.49 1559.7 3190.31C1473.64 3038.02 1343.1 2878.74 1196.92 2906.15Z" fill="black"></path><path fill-rule="evenodd" clip-rule="evenodd" d="M612.898 2652.7C430.342 2639.17 272.818 2744.93 166.434 2856.89C67.5967 2960.9 43.3236 3090.05 78.6243 3214.96C114.745 3342.76 205.093 3457.99 355.133 3524.57C523.71 3599.39 749.744 3669.38 908.338 3583.18C1060.12 3500.68 966.993 3326.27 978.014 3186.03C985.458 3091.31 1018.59 3000.21 960.787 2915.78C881.679 2800.22 785.414 2665.49 612.898 2652.7Z" fill="#1A41B2"></path><path fill-rule="evenodd" clip-rule="evenodd" d="M-252.411 2398.75C-328.947 2384.07 -411.785 2365.98 -474.999 2422.63C-546.423 2486.65 -593.644 2593.99 -593.998 2704.9C-594.353 2816.15 -550.239 2928.61 -476.806 2989.47C-411.715 3043.41 -328.849 3006.1 -252.411 2988C-194.932 2974.39 -149.542 2936.38 -98.6261 2899.92C-12.2193 2838.05 139.723 2830.67 142.937 2704.9C146.119 2580.36 -4.46658 2561.77 -88.3271 2496.83C-141.973 2455.28 -190.261 2410.68 -252.411 2398.75Z" fill="#052684"></path><path fill-rule="evenodd" clip-rule="evenodd" d="M280.191 2418.23C192.526 2435.61 133.371 2529.16 77.156 2616.32C28.3086 2692.06 -13.3027 2776.24 -13.8329 2874.13C-14.3666 2972.66 33.5557 3051.68 74.3439 3135.51C136.188 3262.6 162.541 3476.62 280.191 3478.38C397.544 3480.13 415.291 3255.66 490.948 3141.74C554.413 3046.17 668.028 2997.97 681.47 2874.13C695.863 2741.54 636.887 2610.2 558.335 2520.95C483.53 2435.97 379.367 2398.57 280.191 2418.23Z" fill="#1A41B2"></path><path fill-rule="evenodd" clip-rule="evenodd" d="M1198.12 2044.55C1115.18 2041.43 1012.28 1978.73 958.931 2059.34C905.264 2140.42 982.193 2257.02 987.573 2362.66C992.266 2454.83 951.45 2549.27 987.95 2629.19C1033.14 2728.13 1108.25 2832.76 1198.12 2823.69C1286.93 2814.72 1312.29 2667.13 1377.29 2589.87C1446.84 2507.21 1575.21 2482.77 1586.03 2362.66C1596.96 2241.35 1504.37 2143.14 1423.52 2076.84C1357.52 2022.71 1276.69 2047.51 1198.12 2044.55Z" fill="#4B1AB2" fill-opacity="0.49"></path></g><g filter="url(#filter1_f_1155_5346)"><path fill-rule="evenodd" clip-rule="evenodd" d="M1225.77 5312.11C1317.79 5328.75 1362.43 5455.01 1417.64 5549.85C1461.11 5624.5 1494.75 5701.45 1505.84 5793.17C1519.61 5907 1556.98 6051.01 1487.17 6124.66C1417.12 6198.55 1316.88 6087.97 1225.77 6088.61C1133.55 6089.25 1027.72 6209.69 961.484 6128.32C895.441 6047.18 983.764 5909.76 985.282 5793.17C986.747 5680.62 922.541 5563.98 970.067 5468.91C1022.76 5363.5 1128.33 5294.49 1225.77 5312.11Z" fill="#02FFB3"></path><path fill-rule="evenodd" clip-rule="evenodd" d="M0.904663 3967.04C143.613 3961.66 320.641 3853.76 412.429 3992.49C504.762 4132.05 372.407 4332.74 363.152 4514.56C355.077 4673.19 425.3 4835.74 362.502 4973.3C284.762 5143.58 155.532 5323.67 0.904663 5308.05C-151.885 5292.62 -195.514 5038.59 -307.349 4905.62C-427.013 4763.35 -647.862 4721.28 -666.48 4514.56C-685.287 4305.76 -525.989 4136.73 -386.879 4022.61C-273.325 3929.45 -134.266 3972.13 0.904663 3967.04Z" fill="#4B1AB2"></path><path fill-rule="evenodd" clip-rule="evenodd" d="M722.098 5771.62C869.029 5768.73 1047.09 5621.75 1145.03 5738.35C1244.15 5856.34 1090.33 6031.37 1072.27 6188.47C1058.32 6309.73 1134.82 6454.94 1052.8 6540.42C970.868 6625.81 836.768 6552.36 722.098 6553.4C605.515 6554.46 468.001 6634.37 385.711 6546.47C303.427 6458.58 391.546 6311.97 380.44 6188.47C366.811 6036.89 220.469 5869.44 314.517 5754.69C407.428 5641.33 580.779 5774.4 722.098 5771.62Z" fill="#092473"></path><path fill-rule="evenodd" clip-rule="evenodd" d="M-190.615 5534.25C-47.8702 5561.02 -29.1269 5815.34 78.6888 5936.92C201.508 6075.43 453.335 6070.92 469.199 6278.35C484.802 6482.37 268.923 6575.45 136.519 6693.09C36.0645 6782.33 -69.1608 6842.76 -190.615 6864.55C-340.156 6891.38 -523.979 6971.47 -625.599 6829.82C-727.074 6688.37 -624.749 6468.77 -611.155 6278.35C-599.682 6117.62 -627.542 5949.6 -553.399 5818.41C-467.332 5666.13 -336.795 5506.85 -190.615 5534.25Z" fill="black"></path><path fill-rule="evenodd" clip-rule="evenodd" d="M393.408 5280.8C575.963 5267.27 733.487 5373.04 839.871 5484.99C938.709 5589.01 962.982 5718.15 927.681 5843.06C891.561 5970.87 801.213 6086.09 651.173 6152.68C482.596 6227.49 256.561 6297.48 97.9674 6211.28C-53.8143 6128.79 39.3126 5954.37 28.2921 5814.14C20.8481 5719.41 -12.2826 5628.31 45.5182 5543.88C124.627 5428.32 220.892 5293.59 393.408 5280.8Z" fill="#1A41B2"></path><path fill-rule="evenodd" clip-rule="evenodd" d="M1258.72 5026.86C1335.25 5012.17 1418.09 4994.08 1481.31 5050.74C1552.73 5114.75 1599.95 5222.09 1600.3 5333.01C1600.66 5444.25 1556.55 5556.71 1483.11 5617.57C1418.02 5671.51 1335.16 5634.2 1258.72 5616.1C1201.24 5602.49 1155.85 5564.48 1104.93 5528.03C1018.53 5466.15 866.584 5458.78 863.37 5333.01C860.188 5208.47 1010.77 5189.87 1094.63 5124.93C1148.28 5083.39 1196.57 5038.78 1258.72 5026.86Z" fill="#052684"></path><path fill-rule="evenodd" clip-rule="evenodd" d="M1286.45 4269.13C1374.12 4286.5 1433.27 4380.06 1489.49 4467.22C1538.33 4542.96 1579.94 4627.13 1580.47 4725.03C1581.01 4823.56 1533.09 4902.58 1492.3 4986.4C1430.45 5113.5 1404.1 5327.51 1286.45 5329.27C1169.1 5331.03 1151.35 5106.56 1075.69 4992.64C1012.23 4897.07 898.614 4848.86 885.171 4725.03C870.779 4592.44 929.754 4461.1 1008.31 4371.85C1083.11 4286.87 1187.27 4249.47 1286.45 4269.13Z" fill="#1A41B2"></path><path fill-rule="evenodd" clip-rule="evenodd" d="M-219.461 7864.52C-311.487 7881.16 -356.124 8007.42 -411.337 8102.25C-454.801 8176.91 -488.441 8253.85 -499.535 8345.58C-513.302 8459.4 -550.673 8603.42 -480.858 8677.06C-410.811 8750.95 -310.573 8640.38 -219.461 8641.01C-127.241 8641.66 -21.4132 8762.09 44.8233 8680.72C110.866 8599.59 22.5429 8462.17 21.0253 8345.58C19.5604 8233.03 83.7657 8116.38 36.2402 8021.32C-16.4569 7915.9 -122.025 7846.9 -219.461 7864.52Z" fill="#02FFB3"></path><path fill-rule="evenodd" clip-rule="evenodd" d="M284.208 8324.02C137.277 8321.13 -40.7812 8174.16 -138.727 8290.76C-237.842 8408.75 -84.0264 8583.78 -65.9615 8740.87C-52.0167 8862.14 -128.513 9007.35 -46.4945 9092.83C35.438 9178.21 169.539 9104.77 284.208 9105.81C400.791 9106.87 538.305 9186.77 620.595 9098.88C702.879 9010.99 614.76 8864.38 625.866 8740.87C639.495 8589.3 785.837 8421.84 691.789 8307.1C598.878 8193.74 425.527 8326.8 284.208 8324.02Z" fill="#092473"></path><path fill-rule="evenodd" clip-rule="evenodd" d="M1196.92 8086.66C1054.18 8113.42 1035.43 8367.74 927.617 8489.33C804.798 8627.84 552.971 8623.33 537.107 8830.75C521.504 9034.77 737.382 9127.86 869.787 9245.49C970.241 9334.74 1075.47 9395.16 1196.92 9416.95C1346.46 9443.78 1530.28 9523.87 1631.9 9382.22C1733.38 9240.78 1631.05 9021.18 1617.46 8830.75C1605.99 8670.02 1633.85 8502 1559.7 8370.82C1473.64 8218.53 1343.1 8059.25 1196.92 8086.66Z" fill="black"></path><path fill-rule="evenodd" clip-rule="evenodd" d="M612.898 7833.21C430.342 7819.68 272.818 7925.44 166.434 8037.4C67.5967 8141.41 43.3236 8270.56 78.6243 8395.46C114.745 8523.27 205.093 8638.5 355.133 8705.08C523.71 8779.9 749.744 8849.88 908.338 8763.69C1060.12 8681.19 966.993 8506.78 978.014 8366.54C985.458 8271.82 1018.59 8180.72 960.787 8096.29C881.679 7980.73 785.414 7846 612.898 7833.21Z" fill="#1A41B2"></path><path fill-rule="evenodd" clip-rule="evenodd" d="M-252.411 7579.26C-328.947 7564.58 -411.785 7546.49 -474.999 7603.14C-546.423 7667.16 -593.644 7774.5 -593.998 7885.41C-594.353 7996.66 -550.239 8109.12 -476.806 8169.97C-411.715 8223.92 -328.849 8186.6 -252.411 8168.5C-194.932 8154.89 -149.542 8116.89 -98.6261 8080.43C-12.2193 8018.56 139.723 8011.18 142.937 7885.41C146.119 7760.87 -4.46658 7742.27 -88.3271 7677.33C-141.973 7635.79 -190.261 7591.19 -252.411 7579.26Z" fill="#052684"></path><path fill-rule="evenodd" clip-rule="evenodd" d="M280.191 7598.74C192.526 7616.11 133.371 7709.67 77.156 7796.83C28.3086 7872.57 -13.3027 7956.74 -13.8329 8054.64C-14.3666 8153.17 33.5557 8232.19 74.3439 8316.01C136.188 8443.11 162.541 8657.12 280.191 8658.88C397.544 8660.64 415.291 8436.17 490.948 8322.25C554.413 8226.68 668.028 8178.47 681.47 8054.64C695.863 7922.05 636.887 7790.71 558.335 7701.46C483.53 7616.48 379.367 7579.08 280.191 7598.74Z" fill="#1A41B2"></path><path fill-rule="evenodd" clip-rule="evenodd" d="M1198.12 7225.06C1115.18 7221.94 1012.28 7159.24 958.931 7239.85C905.264 7320.93 982.193 7437.53 987.573 7543.17C992.266 7635.34 951.45 7729.78 987.95 7809.7C1033.14 7908.64 1108.25 8013.27 1198.12 8004.19C1286.93 7995.23 1312.29 7847.64 1377.29 7770.38C1446.84 7687.72 1575.21 7663.27 1586.03 7543.17C1596.96 7421.86 1504.37 7323.65 1423.52 7257.34C1357.52 7203.22 1276.69 7228.02 1198.12 7225.06Z" fill="#4B1AB2" fill-opacity="0.49"></path></g><g filter="url(#filter2_f_1155_5346)"><path fill-rule="evenodd" clip-rule="evenodd" d="M-219.462 10049.1C-311.488 10065.8 -356.125 10192 -411.338 10286.8C-454.802 10361.5 -488.442 10438.4 -499.536 10530.2C-513.303 10644 -550.675 10788 -480.86 10861.7C-410.812 10935.5 -310.575 10825 -219.462 10825.6C-127.242 10826.2 -21.4144 10946.7 44.8221 10865.3C110.865 10784.2 22.5417 10646.8 21.0241 10530.2C19.5592 10417.6 83.7645 10301 36.239 10205.9C-16.4581 10100.5 -122.026 10031.5 -219.462 10049.1Z" fill="#02FFB3"></path><path fill-rule="evenodd" clip-rule="evenodd" d="M1005.4 8704.04C862.692 8698.66 685.664 8590.76 593.877 8729.49C501.544 8869.05 633.899 9069.74 643.154 9251.56C651.229 9410.19 581.005 9572.74 643.803 9710.3C721.544 9880.58 850.773 10060.7 1005.4 10045.1C1158.19 10029.6 1201.82 9775.59 1313.65 9642.62C1433.32 9500.35 1654.17 9458.28 1672.79 9251.56C1691.59 9042.76 1532.29 8873.73 1393.19 8759.61C1279.63 8666.45 1140.57 8709.13 1005.4 8704.04Z" fill="#4B1AB2"></path><path fill-rule="evenodd" clip-rule="evenodd" d="M284.208 10508.6C137.277 10505.7 -40.7816 10358.8 -138.728 10475.4C-237.842 10593.3 -84.0267 10768.4 -65.9619 10925.5C-52.0171 11046.7 -128.513 11191.9 -46.4949 11277.4C35.4376 11362.8 169.538 11289.4 284.208 11290.4C400.791 11291.5 538.304 11371.4 620.594 11283.5C702.879 11195.6 614.76 11049 625.865 10925.5C639.494 10773.9 785.837 10606.4 691.789 10491.7C598.877 10378.3 425.527 10511.4 284.208 10508.6Z" fill="#092473"></path><path fill-rule="evenodd" clip-rule="evenodd" d="M1196.92 10271.3C1054.18 10298 1035.43 10552.3 927.617 10673.9C804.798 10812.4 552.971 10807.9 537.107 11015.3C521.504 11219.4 737.382 11312.5 869.787 11430.1C970.241 11519.3 1075.47 11579.8 1196.92 11601.5C1346.46 11628.4 1530.28 11708.5 1631.9 11566.8C1733.38 11425.4 1631.05 11205.8 1617.46 11015.3C1605.99 10854.6 1633.85 10686.6 1559.7 10555.4C1473.64 10403.1 1343.1 10243.8 1196.92 10271.3Z" fill="black"></path><path fill-rule="evenodd" clip-rule="evenodd" d="M612.898 10017.8C430.342 10004.3 272.818 10110 166.434 10222C67.5967 10326 43.3236 10455.2 78.6243 10580.1C114.745 10707.9 205.093 10823.1 355.133 10889.7C523.71 10964.5 749.744 11034.5 908.338 10948.3C1060.12 10865.8 966.993 10691.4 978.014 10551.1C985.458 10456.4 1018.59 10365.3 960.787 10280.9C881.679 10165.3 785.414 10030.6 612.898 10017.8Z" fill="#1A41B2"></path><path fill-rule="evenodd" clip-rule="evenodd" d="M-252.412 9763.86C-328.948 9749.17 -411.787 9731.08 -475 9787.74C-546.424 9851.75 -593.645 9959.09 -593.999 10070C-594.354 10181.3 -550.24 10293.7 -476.808 10354.6C-411.716 10408.5 -328.85 10371.2 -252.412 10353.1C-194.933 10339.5 -149.543 10301.5 -98.6273 10265C-12.2206 10203.2 139.722 10195.8 142.935 10070C146.117 9945.47 -4.4678 9926.87 -88.3283 9861.93C-141.974 9820.39 -190.262 9775.78 -252.412 9763.86Z" fill="#052684"></path><path fill-rule="evenodd" clip-rule="evenodd" d="M-280.145 9006.13C-367.81 9023.5 -426.965 9117.06 -483.18 9204.22C-532.027 9279.96 -573.639 9364.13 -574.169 9462.03C-574.703 9560.56 -526.78 9639.58 -485.992 9723.4C-424.148 9850.5 -397.795 10064.5 -280.145 10066.3C-162.792 10068 -145.045 9843.56 -69.3883 9729.64C-5.92332 9634.07 107.692 9585.86 121.134 9462.03C135.527 9329.44 76.5514 9198.1 -2.0007 9108.85C-76.8055 9023.87 -180.969 8986.47 -280.145 9006.13Z" fill="#1A41B2"></path><path fill-rule="evenodd" clip-rule="evenodd" d="M1225.77 12601.5C1317.79 12618.2 1362.43 12744.4 1417.64 12839.3C1461.11 12913.9 1494.75 12990.9 1505.84 13082.6C1519.61 13196.4 1556.98 13340.4 1487.16 13414.1C1417.12 13488 1316.88 13377.4 1225.77 13378C1133.55 13378.7 1027.72 13499.1 961.482 13417.7C895.44 13336.6 983.763 13199.2 985.28 13082.6C986.745 12970 922.54 12853.4 970.065 12758.3C1022.76 12652.9 1128.33 12583.9 1225.77 12601.5Z" fill="#02FFB3"></path><path fill-rule="evenodd" clip-rule="evenodd" d="M722.098 13061C869.029 13058.1 1047.09 12911.2 1145.03 13027.8C1244.15 13145.7 1090.33 13320.8 1072.27 13477.9C1058.32 13599.1 1134.82 13744.3 1052.8 13829.8C970.868 13915.2 836.767 13841.8 722.098 13842.8C605.515 13843.9 468.001 13923.8 385.711 13835.9C303.426 13748 391.546 13601.4 380.44 13477.9C366.811 13326.3 220.469 13158.8 314.516 13044.1C407.428 12930.7 580.778 13063.8 722.098 13061Z" fill="#092473"></path><path fill-rule="evenodd" clip-rule="evenodd" d="M-190.615 12823.7C-47.8702 12850.4 -29.1269 13104.7 78.6888 13226.3C201.508 13364.8 453.335 13360.3 469.199 13567.8C484.802 13771.8 268.923 13864.9 136.519 13982.5C36.0645 14071.7 -69.1608 14132.2 -190.615 14154C-340.156 14180.8 -523.979 14260.9 -625.599 14119.2C-727.074 13977.8 -624.749 13758.2 -611.155 13567.8C-599.682 13407 -627.542 13239 -553.399 13107.8C-467.332 12955.5 -336.795 12796.3 -190.615 12823.7Z" fill="black"></path><path fill-rule="evenodd" clip-rule="evenodd" d="M393.408 12570.2C575.963 12556.7 733.487 12662.4 839.871 12774.4C938.709 12878.4 962.982 13007.6 927.681 13132.5C891.561 13260.3 801.213 13375.5 651.173 13442.1C482.596 13516.9 256.561 13586.9 97.9674 13500.7C-53.8143 13418.2 39.3126 13243.8 28.2921 13103.5C20.8481 13008.8 -12.2826 12917.7 45.5182 12833.3C124.627 12717.7 220.892 12583 393.408 12570.2Z" fill="#1A41B2"></path><path fill-rule="evenodd" clip-rule="evenodd" d="M1258.72 12316.3C1335.25 12301.6 1418.09 12283.5 1481.3 12340.1C1552.73 12404.2 1599.95 12511.5 1600.3 12622.4C1600.66 12733.7 1556.54 12846.1 1483.11 12907C1418.02 12960.9 1335.15 12923.6 1258.72 12905.5C1201.24 12891.9 1155.85 12853.9 1104.93 12817.4C1018.52 12755.6 866.582 12748.2 863.369 12622.4C860.187 12497.9 1010.77 12479.3 1094.63 12414.3C1148.28 12372.8 1196.57 12328.2 1258.72 12316.3Z" fill="#052684"></path><path fill-rule="evenodd" clip-rule="evenodd" d="M726.114 12335.7C813.78 12353.1 872.934 12446.7 929.15 12533.8C977.997 12609.6 1019.61 12693.7 1020.14 12791.6C1020.67 12890.2 972.75 12969.2 931.962 13053C870.118 13180.1 843.765 13394.1 726.114 13395.9C608.761 13397.6 591.014 13173.2 515.358 13059.2C451.893 12963.7 338.278 12915.5 324.835 12791.6C310.443 12659.1 369.418 12527.7 447.97 12438.5C522.775 12353.5 626.938 12316.1 726.114 12335.7Z" fill="#1A41B2"></path><path fill-rule="evenodd" clip-rule="evenodd" d="M-191.818 11962.1C-108.871 11958.9 -5.97565 11896.2 47.3743 11976.8C101.042 12057.9 24.1124 12174.5 18.7328 12280.2C14.0394 12372.3 54.8559 12466.8 18.3555 12546.7C-26.8301 12645.6 -101.943 12750.3 -191.818 12741.2C-280.625 12732.2 -305.983 12584.6 -370.986 12507.4C-440.539 12424.7 -568.904 12400.3 -579.726 12280.2C-590.657 12158.9 -498.067 12060.7 -417.212 11994.3C-351.21 11940.2 -270.384 11965 -191.818 11962.1Z" fill="#4B1AB2" fill-opacity="0.49"></path></g><g filter="url(#filter3_f_1155_5346)"><path fill-rule="evenodd" clip-rule="evenodd" d="M1005.4 13585C862.692 13579.7 685.664 13471.8 593.877 13610.5C501.544 13750 633.899 13950.7 643.154 14132.6C651.229 14291.2 581.005 14453.7 643.803 14591.3C721.544 14761.6 850.773 14941.7 1005.4 14926.1C1158.19 14910.6 1201.82 14656.6 1313.65 14523.6C1433.32 14381.3 1654.17 14339.3 1672.79 14132.6C1691.59 13923.8 1532.29 13754.7 1393.19 13640.6C1279.63 13547.4 1140.57 13590.1 1005.4 13585Z" fill="#4B1AB2"></path></g></g><defs><filter id="filter0_f_1155_5346" x="-1070" y="-568.508" width="3146.31" height="5251.84" filterUnits="userSpaceOnUse" color-interpolation-filters="sRGB"><feGaussianBlur stdDeviation="200"></feGaussianBlur></filter><filter id="filter1_f_1155_5346" x="-1070" y="3522" width="3146.31" height="6341.84" filterUnits="userSpaceOnUse" color-interpolation-filters="sRGB"><feGaussianBlur stdDeviation="200"></feGaussianBlur></filter><filter id="filter2_f_1155_5346" x="-1070" y="8259" width="3146.31" height="6341.84" filterUnits="userSpaceOnUse" color-interpolation-filters="sRGB"><feGaussianBlur stdDeviation="200"></feGaussianBlur></filter><filter id="filter3_f_1155_5346" x="-1070" y="13140" width="3146.31" height="6341.84" filterUnits="userSpaceOnUse" color-interpolation-filters="sRGB"><feGaussianBlur stdDeviation="200"></feGaussianBlur></filter></defs></svg>