<svg xmlns="http://www.w3.org/2000/svg" width="90" height="55" viewBox="0 0 90 55" fill="none"><path d="M25.3295 0.375488C29.4088 0.375488 32.3066 1.26966 34.023 3.05801C35.3121 4.41573 35.9564 6.13345 35.9557 8.21117C35.9516 8.96758 35.88 9.72212 35.7417 10.4658L34.9909 14.65C34.5609 16.9774 33.8183 18.8555 32.763 20.2846C31.7077 21.7136 30.5358 22.735 29.2473 23.3487L34.132 39.0211H23.2898L18.7816 24.583H15.4531L13.254 39.018H2.94873L9.76406 0.375488H25.3295ZM21.9486 8.74911H17.9237L16.528 18.0875H20.2843C22.1803 18.0875 23.5401 17.6302 24.3637 16.7154C25.1872 15.8007 25.5986 14.5938 25.5979 13.0948C25.5979 10.1936 24.3815 8.745 21.9486 8.74911Z" fill="url(#paint0_linear_195_27)"></path><path d="M58.7662 1.83753e-06C67.3877 1.83753e-06 71.6992 3.52321 71.7006 10.5696C71.6906 11.8497 71.5649 13.1262 71.3251 14.3836L69.447 25.1147C68.5871 30.0903 66.7264 33.7767 63.8649 36.1739C61.0034 38.5712 56.9779 39.7695 51.7884 39.7688C46.5996 39.7688 42.9858 38.5705 40.9472 36.1739C39.5511 34.5282 38.853 32.2558 38.853 29.3565C38.8669 27.9325 39.0108 26.5126 39.283 25.1147L41.1611 14.3836C42.8425 4.7911 48.7109 -0.00342674 58.7662 1.83753e-06ZM53.2387 31.4487C55.027 31.4487 56.4581 30.9841 57.5319 30.0549C58.6058 29.1258 59.357 27.4077 59.7856 24.9008L61.6113 14.5975C61.7117 13.9588 61.765 13.3135 61.7707 12.6669C61.7707 9.76632 60.304 8.31603 57.3705 8.31603C53.6834 8.39008 51.4826 10.4839 50.768 14.5975L48.9444 24.9008C48.7982 25.824 48.726 26.7575 48.7284 27.6923C48.7284 30.1993 50.2318 31.4514 53.2387 31.4487Z" fill="url(#paint1_linear_195_27)"></path><path d="M90.0001 0.375488L83.2393 39.018H73.5244L80.3408 0.375488H90.0001Z" fill="url(#paint2_linear_195_27)"></path><path d="M5.09232 42.6881L6.82209 48.2654L10.5403 42.6881H13.5957L11.5426 54.3277H8.61652L9.78048 47.7643L7.2909 51.6765H5.17315L4.07385 47.7643L2.90989 54.3277H0L2.05309 42.6881H5.09232Z" fill="url(#paint3_linear_195_27)"></path><path d="M19.6005 54.3277L19.6975 51.7896H16.9977L16.2056 54.3277H13.1179L17.2726 42.6881H22.6074L22.672 54.3277H19.6005ZM18.9377 45.5172L17.6606 49.6234H19.7783L19.9561 45.5172H18.9377Z" fill="url(#paint4_linear_195_27)"></path><path d="M28.2918 54.554C26.7506 54.554 25.6836 54.2199 25.0909 53.5517C24.6814 53.0775 24.4766 52.4147 24.4766 51.5633C24.4766 51.1969 24.5143 50.8035 24.5897 50.3832L25.2526 46.665C25.7375 43.9383 27.4889 42.575 30.5065 42.575C31.7567 42.575 32.7051 42.8444 33.3518 43.3833C33.9984 43.9113 34.3217 44.6388 34.3217 45.5657C34.3217 45.9968 34.2571 46.4279 34.1277 46.859C34.0092 47.2793 33.8906 47.5918 33.7721 47.7966L33.5942 48.1199H30.7329C31.0885 47.7104 31.2663 47.1284 31.2663 46.374C31.2663 45.9752 31.1639 45.6627 30.9592 45.4363C30.7544 45.1992 30.4526 45.0807 30.0539 45.0807C28.9654 45.0807 28.3187 45.6842 28.1139 46.8913L27.5481 50.1568C27.4942 50.4371 27.4673 50.7119 27.4673 50.9813C27.4673 51.6926 27.893 52.0483 28.7444 52.0483C29.7683 52.0483 30.3826 51.4717 30.5874 50.3185H33.4972L33.4164 50.7873C32.9853 53.2985 31.2771 54.554 28.2918 54.554Z" fill="url(#paint5_linear_195_27)"></path><path d="M45.6939 42.6881L43.657 54.3277H40.7309L41.4746 50.1245H38.3222L37.5947 54.3277H34.6687L36.7218 42.6881H39.6316L38.7587 47.6026H41.9111L42.784 42.6881H45.6939Z" fill="url(#paint6_linear_195_27)"></path><path d="M50.9037 42.6881L48.8668 54.3277H45.9407L47.9938 42.6881H50.9037Z" fill="url(#paint7_linear_195_27)"></path><path d="M62.1758 42.6881L60.1388 54.3277H57.2128L55.1758 47.9583L54.0765 54.3277H51.1505L53.2036 42.6881H56.2105L58.2151 48.6372L59.2659 42.6881H62.1758Z" fill="url(#paint8_linear_195_27)"></path><path d="M70.5379 54.3277H62.4225L64.4756 42.6881H72.591L72.1384 45.21H66.9329L66.5611 47.3924H70.8612L70.4086 49.9144H66.1084L65.7851 51.8058H70.9906L70.5379 54.3277Z" fill="url(#paint9_linear_195_27)"></path><path d="M75.4878 51.0136C75.4878 51.7573 76.0212 52.1291 77.0882 52.1291C78.1659 52.1291 78.7048 51.795 78.7048 51.1268C78.7048 50.7712 78.5216 50.4802 78.1552 50.2538C77.7887 50.0275 77.3415 49.8389 76.8134 49.688C76.2961 49.5371 75.7734 49.3647 75.2453 49.1707C74.728 48.9659 74.2861 48.6534 73.9196 48.2331C73.5532 47.802 73.37 47.2685 73.37 46.6326C73.37 43.9275 75.1105 42.575 78.5916 42.575C79.8634 42.575 80.8226 42.8174 81.4692 43.3024C82.1266 43.7766 82.4553 44.4394 82.4553 45.2909C82.4553 45.6034 82.4122 45.9052 82.326 46.1962C82.2506 46.4764 82.1697 46.6757 82.0835 46.7943L81.9542 46.9883H79.0928C79.3299 46.7404 79.4484 46.4279 79.4484 46.0507C79.4484 45.3501 78.9904 44.9999 78.0743 44.9999C76.9212 44.9999 76.3446 45.3663 76.3446 46.0992C76.3446 46.4656 76.5278 46.7566 76.8942 46.9721C77.2606 47.1877 77.7025 47.3601 78.2198 47.4894C78.7479 47.608 79.276 47.7589 79.8041 47.9421C80.3322 48.1253 80.7795 48.4325 81.1459 48.8636C81.5123 49.2839 81.6955 49.8335 81.6955 50.5125C81.6955 51.8812 81.286 52.8997 80.4669 53.5679C79.6478 54.2253 78.3869 54.554 76.684 54.554C74.9812 54.554 73.8173 54.2522 73.1922 53.6487C72.7287 53.1961 72.497 52.571 72.497 51.7734C72.497 51.4717 72.5294 51.143 72.594 50.7873L72.6425 50.5287H75.5524L75.5201 50.7227C75.4985 50.8304 75.4878 50.9274 75.4878 51.0136Z" fill="url(#paint10_linear_195_27)"></path><defs><linearGradient id="paint0_linear_195_27" x1="29.721" y1="5.2383" x2="-16.4017" y2="23.1118" gradientUnits="userSpaceOnUse"><stop stop-color="#1A41B2"></stop><stop offset="1" stop-color="#070F2D"></stop></linearGradient><linearGradient id="paint1_linear_195_27" x1="65.496" y1="5.00414" x2="19.2044" y2="22.3522" gradientUnits="userSpaceOnUse"><stop stop-color="#1A41B2"></stop><stop offset="1" stop-color="#070F2D"></stop></linearGradient><linearGradient id="paint2_linear_195_27" x1="86.888" y1="5.23791" x2="61.3633" y2="10.1757" gradientUnits="userSpaceOnUse"><stop stop-color="#1A41B2"></stop><stop offset="1" stop-color="#070F2D"></stop></linearGradient><linearGradient id="paint3_linear_195_27" x1="66.8804" y1="44.0823" x2="54.557" y2="82.5696" gradientUnits="userSpaceOnUse"><stop stop-color="#1A41B2"></stop><stop offset="1" stop-color="#070F2D"></stop></linearGradient><linearGradient id="paint4_linear_195_27" x1="66.8804" y1="44.0823" x2="54.557" y2="82.5696" gradientUnits="userSpaceOnUse"><stop stop-color="#1A41B2"></stop><stop offset="1" stop-color="#070F2D"></stop></linearGradient><linearGradient id="paint5_linear_195_27" x1="66.8804" y1="44.0823" x2="54.557" y2="82.5696" gradientUnits="userSpaceOnUse"><stop stop-color="#1A41B2"></stop><stop offset="1" stop-color="#070F2D"></stop></linearGradient><linearGradient id="paint6_linear_195_27" x1="66.8804" y1="44.0823" x2="54.557" y2="82.5696" gradientUnits="userSpaceOnUse"><stop stop-color="#1A41B2"></stop><stop offset="1" stop-color="#070F2D"></stop></linearGradient><linearGradient id="paint7_linear_195_27" x1="66.8804" y1="44.0823" x2="54.557" y2="82.5696" gradientUnits="userSpaceOnUse"><stop stop-color="#1A41B2"></stop><stop offset="1" stop-color="#070F2D"></stop></linearGradient><linearGradient id="paint8_linear_195_27" x1="66.8804" y1="44.0823" x2="54.557" y2="82.5696" gradientUnits="userSpaceOnUse"><stop stop-color="#1A41B2"></stop><stop offset="1" stop-color="#070F2D"></stop></linearGradient><linearGradient id="paint9_linear_195_27" x1="66.8804" y1="44.0823" x2="54.557" y2="82.5696" gradientUnits="userSpaceOnUse"><stop stop-color="#1A41B2"></stop><stop offset="1" stop-color="#070F2D"></stop></linearGradient><linearGradient id="paint10_linear_195_27" x1="66.8804" y1="44.0823" x2="54.557" y2="82.5696" gradientUnits="userSpaceOnUse"><stop stop-color="#1A41B2"></stop><stop offset="1" stop-color="#070F2D"></stop></linearGradient></defs></svg>