<svg xmlns="http://www.w3.org/2000/svg" width="1440" height="1046" viewBox="0 0 1440 1046" fill="none"><rect x="-175" width="1790" height="1046" fill="#070F2D"></rect><mask id="mask0_106_990" style="mask-type:alpha" maskUnits="userSpaceOnUse" x="-175" y="0" width="1790" height="1046"><rect x="-175" width="1790" height="1046" fill="#1A41B2"></rect></mask><g mask="url(#mask0_106_990)"><g filter="url(#filter0_f_106_990)"><path fill-rule="evenodd" clip-rule="evenodd" d="M80.6425 368.142C170.83 381.476 182.672 508.181 250.791 568.757C328.389 637.762 487.495 635.515 497.518 738.857C507.376 840.501 370.982 886.879 287.328 945.485C223.86 989.948 157.378 1020.05 80.6425 1030.91C-13.838 1044.27 -129.979 1084.18 -194.183 1013.61C-258.296 943.134 -193.646 833.728 -185.058 738.857C-177.809 658.78 -195.411 575.07 -148.567 509.712C-94.189 433.842 -11.7149 354.487 80.6425 368.142Z" fill="black"></path><path fill-rule="evenodd" clip-rule="evenodd" d="M1447.58 306.914C1551.89 321.785 1602.48 434.608 1665.07 519.35C1714.33 586.06 1752.46 654.814 1765.04 736.778C1780.64 838.493 1823 967.179 1743.87 1032.99C1664.47 1099.01 1550.85 1000.21 1447.58 1000.77C1343.05 1001.35 1223.09 1108.97 1148.01 1036.26C1073.16 963.757 1173.27 840.959 1174.99 736.778C1176.65 636.209 1103.87 531.977 1157.74 447.026C1217.47 352.831 1337.13 291.169 1447.58 306.914Z" fill="#02FFB3"></path><path fill-rule="evenodd" clip-rule="evenodd" d="M99.1206 -119.528C193.14 -122.319 309.771 -178.34 370.242 -106.314C431.073 -33.8595 343.875 70.3335 337.777 164.731C332.457 247.088 378.722 331.477 337.35 402.893C286.132 491.302 200.993 584.799 99.1206 576.689C-1.54083 568.675 -30.2843 436.792 -103.964 367.759C-182.802 293.893 -328.302 272.051 -340.568 164.731C-352.958 56.3247 -248.009 -31.4277 -156.361 -90.6783C-81.5481 -139.045 10.067 -116.883 99.1206 -119.528Z" fill="#4B1AB2"></path><path fill-rule="evenodd" clip-rule="evenodd" d="M722.767 509.768C889.312 507.184 1091.14 375.854 1202.16 480.043C1314.5 585.475 1140.16 741.879 1119.68 882.255C1103.87 990.616 1190.58 1120.37 1097.61 1196.75C1004.74 1273.05 852.744 1207.42 722.767 1208.35C590.622 1209.3 434.752 1280.7 341.477 1202.16C248.209 1123.62 348.091 992.619 335.503 882.255C320.055 746.813 154.177 597.178 260.779 494.644C366.093 393.349 562.584 512.252 722.767 509.768Z" fill="#092473"></path><path fill-rule="evenodd" clip-rule="evenodd" d="M1331.02 -155.732C1417.77 -168.854 1511.67 -185.019 1583.32 -134.393C1664.28 -77.1908 1717.8 18.7278 1718.2 117.837C1718.6 217.241 1668.6 317.734 1585.37 372.115C1511.59 420.319 1417.66 386.974 1331.02 370.801C1265.87 358.64 1214.42 324.679 1156.71 292.1C1058.76 236.813 886.539 230.222 882.897 117.837C879.29 6.55009 1049.98 -10.0687 1145.03 -68.0976C1205.84 -105.219 1260.57 -145.076 1331.02 -155.732Z" fill="#052684"></path><path fill-rule="evenodd" clip-rule="evenodd" d="M1117.11 372.617C1239.3 360.528 1344.74 455.007 1415.95 555.016C1482.11 647.931 1498.36 763.297 1474.73 874.874C1450.55 989.044 1390.08 1091.97 1289.64 1151.45C1176.81 1218.28 1025.51 1280.8 919.348 1203.8C817.75 1130.11 880.086 974.307 872.71 849.038C867.727 764.423 845.55 683.042 884.24 607.62C937.193 504.395 1001.63 384.041 1117.11 372.617Z" fill="#1A41B2"></path><path fill-rule="evenodd" clip-rule="evenodd" d="M727.32 -138.328C826.688 -122.802 893.738 -39.2048 957.457 38.6834C1012.83 106.363 1059.99 181.577 1060.59 269.052C1061.2 357.096 1006.88 427.709 960.645 502.612C890.545 616.181 860.675 807.419 727.32 808.992C594.301 810.561 574.186 609.981 488.43 508.181C416.493 422.786 287.712 379.709 272.475 269.052C256.161 150.577 323.009 33.2095 412.047 -46.5369C496.837 -122.479 614.905 -155.893 727.32 -138.328Z" fill="#1A41B2"></path></g></g><defs><filter id="filter0_f_106_990" x="-741.569" y="-569.008" width="2931.97" height="2208.32" filterUnits="userSpaceOnUse" color-interpolation-filters="sRGB"><feGaussianBlur stdDeviation="200"></feGaussianBlur></filter></defs></svg>